<svg id="Layer_1" data-name="Layer 1" xmlns="http://www.w3.org/2000/svg" viewBox="0 0 81.25 100"><defs><style>.cls-1{fill:#fff;}</style></defs><title>time-icon</title><path class="cls-1" d="M90.87,59.38A39.44,39.44,0,0,1,85.4,79.79,41.07,41.07,0,0,1,70.66,94.53,39.44,39.44,0,0,1,50.25,100a39.38,39.38,0,0,1-20.41-5.47A41,41,0,0,1,15.09,79.79,39.44,39.44,0,0,1,9.62,59.38a40.4,40.4,0,0,1,16.9-33,39,39,0,0,1,17.48-7V12.5H38.53a2.34,2.34,0,0,1-2.35-2.34V2.34A2.26,2.26,0,0,1,36.87.68,2.27,2.27,0,0,1,38.53,0H62a2.25,2.25,0,0,1,1.65.68,2.26,2.26,0,0,1,.69,1.66v7.82A2.34,2.34,0,0,1,62,12.5H56.5v6.64A40.43,40.43,0,0,1,76,27.93l5.27-5.27a2.44,2.44,0,0,1,1.76-.78,1.85,1.85,0,0,1,1.56.78l5.67,5.47a2.11,2.11,0,0,1,.58,1.56,2.86,2.86,0,0,1-.58,1.76L84.43,37.3A39.87,39.87,0,0,1,90.87,59.38Zm-34.37,7V36.72a2.37,2.37,0,0,0-.69-1.56,2.13,2.13,0,0,0-1.66-.79H46.34a2.13,2.13,0,0,0-1.66.79A2.35,2.35,0,0,0,44,36.72V66.41a2.32,2.32,0,0,0,2.34,2.34h7.81a2.23,2.23,0,0,0,1.66-.68A2.26,2.26,0,0,0,56.5,66.41Z" transform="translate(-9.62)"/></svg>