<svg xmlns="http://www.w3.org/2000/svg" viewBox="0 0 199.14 68.03"><defs><style>.cls-1{fill:#fff;}.cls-2{fill:#ea0029;}.cls-3{fill:#0a0203;}</style></defs><g id="Layer_2" data-name="Layer 2"><g id="Layer_1-2" data-name="Layer 1"><path class="cls-1" d="M0,31.79H2.93a2.5,2.5,0,0,1,2.52,1.42,9.67,9.67,0,0,1,.42,3A8,8,0,0,1,5.3,40c-.51.81-1.46,1.21-3.1,1.21H0Zm1.2,8.34H2.37c1.66,0,2.27-.62,2.27-2.81v-1.9c0-1.89-.58-2.59-1.83-2.59H1.24Z"/><path class="cls-1" d="M8,41.17V31.79H12.8v1H9.16v3h3.38v1H9.16v3.25h3.71v1Z"/><path class="cls-1" d="M14.62,41.17V31.79H17.4c1.26,0,2.61.46,2.61,2.67A2.43,2.43,0,0,1,17.39,37H15.81v4.13ZM15.81,36h1.32a1.49,1.49,0,0,0,1.66-1.6,1.37,1.37,0,0,0-1.33-1.57H15.81Z"/><path class="cls-1" d="M23.16,31.79h1.52l3.06,9.38H26.4l-.68-2.23H22.09l-.7,2.23H20.18Zm.73,1.1h0l-1.47,5h3Z"/><path class="cls-1" d="M30.15,36.86v4.31H29V31.79h3.23a2.11,2.11,0,0,1,2.25,2.33,2,2,0,0,1-1.71,2.15v0c1.08.16,1.47.53,1.53,2.41a13.17,13.17,0,0,0,.33,2.46H33.34A10.86,10.86,0,0,1,33,38.05a1.23,1.23,0,0,0-1.41-1.19Zm0-1H32c.86,0,1.27-.75,1.27-1.57A1.27,1.27,0,0,0,32,32.83H30.15Z"/><path class="cls-1" d="M41.48,31.79v1H39v8.34h-1.2V32.83H35.34v-1Z"/><path class="cls-1" d="M43.84,41.17H42.72V31.79h1.94L47,39.66h0l2.4-7.87h2v9.38H50.23V32.83h0l-2.63,8.34H46.44l-2.57-8.34h0Z"/><path class="cls-1" d="M53.54,41.17V31.79h4.84v1H54.74v3h3.38v1H54.74v3.25h3.71v1Z"/><path class="cls-1" d="M66.54,31.79v9.38H64.9L61.2,33h0v8.14H60.11V31.79H61.8l3.65,8h0v-8Z"/><path class="cls-1" d="M74,31.79v1H71.51v8.34h-1.2V32.83H67.84v-1Z"/><path class="cls-1" d="M78.06,37.74V34.66c0-1.87,1-3.07,3-3.07S84,32.79,84,34.66v3.08c0,2.6-1,3.63-2.95,3.63S78.06,40.34,78.06,37.74Zm4.68,0V34.62c0-2-1.35-2-1.73-2s-1.73.07-1.73,2v3.17c0,2.05.6,2.58,1.73,2.58S82.74,39.84,82.74,37.79Z"/><path class="cls-1" d="M86,41.17V31.79H90.6v1H87.14v3h3.28v1H87.14v4.29Z"/><path class="cls-1" d="M98.83,34.37A2.11,2.11,0,0,0,98.56,33a1.58,1.58,0,0,0-1-.41,1.47,1.47,0,0,0-1.42.73c0,.11-.27.34-.27,2v2.51c0,2.3.75,2.58,1.67,2.58.37,0,1.47-.13,1.48-2h1.24c.05,3-2,3-2.65,3-1.17,0-3-.08-3-3.72V35c0-2.66,1.17-3.41,3-3.41s2.57,1,2.46,2.78Z"/><path class="cls-1" d="M101.89,31.79h1.19v6c0,2.05.63,2.58,1.76,2.58s1.75-.53,1.75-2.58v-6h1.2v6c0,2.6-1,3.63-3,3.63s-3-1-3-3.63Z"/><path class="cls-1" d="M109.87,41.17V31.79h1.19v8.34h3.45v1Z"/><path class="cls-1" d="M120.13,31.79v1h-2.47v8.34h-1.2V32.83H114v-1Z"/><path class="cls-1" d="M121.32,31.79h1.2v6c0,2.05.62,2.58,1.75,2.58s1.76-.53,1.76-2.58v-6h1.2v6c0,2.6-1,3.63-3,3.63s-3-1-3-3.63Z"/><path class="cls-1" d="M130.48,36.86v4.31h-1.2V31.79h3.24a2.12,2.12,0,0,1,2.25,2.33,2,2,0,0,1-1.72,2.15v0c1.08.16,1.47.53,1.53,2.41a15.08,15.08,0,0,0,.33,2.46h-1.25a10.57,10.57,0,0,1-.36-3.12,1.24,1.24,0,0,0-1.42-1.19Zm0-1h1.79c.86,0,1.27-.75,1.27-1.57a1.27,1.27,0,0,0-1.26-1.42h-1.8Z"/><path class="cls-1" d="M136.53,41.17V31.79h4.84v1h-3.64v3h3.38v1h-3.38v3.25h3.72v1Z"/><path class="cls-1" d="M66.94,47.66h1.52l3.06,9.39H70.18l-.68-2.24H65.88l-.71,2.24H64Zm.73,1.11h0l-1.47,5h3Z"/><path class="cls-1" d="M79.27,47.66v9.39H77.63l-3.71-8.14h0v8.14H72.83V47.66h1.69l3.65,8h0v-8Z"/><path class="cls-1" d="M81.46,47.66h2.89a2.51,2.51,0,0,1,2.52,1.43,9.61,9.61,0,0,1,.42,3c0,2-.19,3.16-.58,3.79-.5.8-1.45,1.21-3.09,1.21H81.46ZM82.66,56h1.13c1.66,0,2.27-.63,2.27-2.81V51.3c0-1.9-.58-2.6-1.83-2.6H82.66Z"/><path class="cls-1" d="M97.53,47.66v1H95.06v8.35h-1.2V48.7H91.39v-1Z"/><path class="cls-1" d="M98.73,53.61V50.53c0-1.87,1-3.07,3-3.07s2.95,1.2,2.95,3.07v3.08c0,2.6-1,3.63-2.95,3.63S98.73,56.21,98.73,53.61Zm4.68.06V50.49c0-2-1.36-2-1.73-2s-1.73.06-1.73,2v3.18c0,2,.6,2.57,1.73,2.57S103.41,55.72,103.41,53.67Z"/><path class="cls-1" d="M106.67,47.66h1.19v6c0,2,.63,2.57,1.76,2.57s1.75-.52,1.75-2.57v-6h1.2v6c0,2.6-1,3.63-2.95,3.63s-3-1-3-3.63Z"/><path class="cls-1" d="M115.82,52.73v4.32h-1.2V47.66h3.24A2.12,2.12,0,0,1,120.11,50a2,2,0,0,1-1.72,2.14v0c1.08.17,1.47.53,1.54,2.42a14.21,14.21,0,0,0,.32,2.46H119a10.91,10.91,0,0,1-.37-3.12,1.24,1.24,0,0,0-1.42-1.2Zm0-1h1.79c.86,0,1.28-.74,1.28-1.56a1.27,1.27,0,0,0-1.26-1.43h-1.81Z"/><path class="cls-1" d="M123.23,57.05H122V47.66h1.2Z"/><path class="cls-1" d="M126.42,54.25v.27A1.48,1.48,0,0,0,128,56.2c1,0,1.68-.4,1.68-1.52,0-2.08-4.22-1.85-4.22-4.67a2.49,2.49,0,0,1,2.76-2.55c1.72,0,2.68.84,2.6,2.75h-1.25c0-1-.31-1.71-1.44-1.71a1.31,1.31,0,0,0-1.44,1.38c0,2.07,4.21,1.77,4.21,4.75,0,2-1.37,2.61-2.91,2.61-2.77,0-2.77-2.09-2.75-3Z"/><path class="cls-1" d="M133.85,57.05h-1.12V47.66h1.94L137,55.54h0l2.39-7.88h2v9.39h-1.2V48.7h0l-2.63,8.35h-1.13l-2.57-8.35h0Z"/><path class="cls-1" d="M5.37,21c0,.21.09.31.26.31h.73v1.15H5.48A1.18,1.18,0,0,1,4.57,22,1.54,1.54,0,0,1,4.22,21l0-4.81c-.26.13-.57.29-.93.49a5.75,5.75,0,0,0-1,.72,4.3,4.3,0,0,0-.79,1,2.33,2.33,0,0,0-.34,1.26,1.48,1.48,0,0,0,.6,1.35,4.22,4.22,0,0,0,1.87.5l-.09,1.14a5.28,5.28,0,0,1-1.81-.37,3.06,3.06,0,0,1-1.07-.74,2.34,2.34,0,0,1-.51-.92,3.63,3.63,0,0,1-.13-1,3.47,3.47,0,0,1,.64-2.1A6.19,6.19,0,0,1,2.15,16a8.15,8.15,0,0,1,1.77-1c.6-.24,1.08-.41,1.45-.52ZM2.84,12.62a.73.73,0,0,1-.22.52.71.71,0,0,1-.53.22.71.71,0,0,1-.53-.22.73.73,0,0,1-.22-.52.75.75,0,0,1,.22-.53.71.71,0,0,1,.53-.22.71.71,0,0,1,.53.22A.75.75,0,0,1,2.84,12.62Zm2.48,0a.75.75,0,0,1-.74.74.75.75,0,0,1-.75-.74.71.71,0,0,1,.22-.53.74.74,0,0,1,1,0A.71.71,0,0,1,5.32,12.62Z"/><path class="cls-1" d="M9.32,22.41h-3a.79.79,0,0,1-.55-.2.43.43,0,0,1,0-.75.79.79,0,0,1,.55-.2h3Z"/><path class="cls-1" d="M9.32,22.41a.79.79,0,0,1-.55-.2.43.43,0,0,1,0-.75.79.79,0,0,1,.55-.2h5.76a4.39,4.39,0,0,1-.34-1.15c-.08-.48-.14-1.09-.19-1.84A4.21,4.21,0,0,0,14.29,17a1.84,1.84,0,0,0-.48-.69,1.55,1.55,0,0,0-.62-.3,3.68,3.68,0,0,0-.66-.06,2.84,2.84,0,0,0-1.58.53l-.71-.91a4.55,4.55,0,0,1,1-.53,3.46,3.46,0,0,1,1.3-.24,2.86,2.86,0,0,1,2.22.85,4.22,4.22,0,0,1,.93,2.54c.09,1,.17,1.72.26,2.16a.92.92,0,0,0,.57.79l.62.18,0,1.1Z"/><path class="cls-1" d="M18.71,22.41V10.86h1.15v10.4h1v1.15Z"/><path class="cls-1" d="M22.81,22.41h-2a.77.77,0,0,1-.55-.2.43.43,0,0,1,0-.75.77.77,0,0,1,.55-.2h2Z"/><path class="cls-1" d="M22.81,22.41a.77.77,0,0,1-.55-.2.43.43,0,0,1,0-.75.77.77,0,0,1,.55-.2h3V15.65h1.14v5.61h1v1.15Zm1.27,3.12a.73.73,0,0,1-.53-.22.75.75,0,0,1-.22-.53.75.75,0,0,1,.75-.75.75.75,0,0,1,.53.22.73.73,0,0,1,.22.53.75.75,0,0,1-.75.75Zm2.25,0a.69.69,0,0,1-.53-.22.71.71,0,0,1-.22-.53.75.75,0,1,1,1.49,0,.71.71,0,0,1-.22.53A.69.69,0,0,1,26.33,25.53Z"/><path class="cls-1" d="M30.34,22.41H27.93a.81.81,0,0,1-.55-.2.43.43,0,0,1,0-.75.81.81,0,0,1,.55-.2h2.41Z"/><path class="cls-1" d="M39.6,21.26v1.15H30.34a.79.79,0,0,1-.55-.2.43.43,0,0,1,0-.75.79.79,0,0,1,.55-.2h.3c.49,0,.78-.05.87-.16a.79.79,0,0,0,.15-.54v-5H32.8v5.7h1.83v-5.7h1.14v5.7h1.65v-5.7h1.19v5.7Z"/><path class="cls-1" d="M43.56,22.41h-4a.79.79,0,0,1-.55-.2.43.43,0,0,1,0-.75.79.79,0,0,1,.55-.2h4Z"/><path class="cls-1" d="M44.55,10.79h1.14V22.41H43.56a.79.79,0,0,1-.55-.2.43.43,0,0,1,0-.75.79.79,0,0,1,.55-.2h1Z"/><path class="cls-1" d="M47.45,10.86H48.6V22.41H47.45Z"/><path class="cls-1" d="M55.59,23a9.71,9.71,0,0,1-.11,1.54,3.92,3.92,0,0,1-.42,1.33,2.53,2.53,0,0,1-.89.95,2.92,2.92,0,0,1-1.55.36V26a1.79,1.79,0,0,0,1.06-.27,1.64,1.64,0,0,0,.55-.74,4.14,4.14,0,0,0,.21-1.08c0-.4,0-.83,0-1.27v-.24h-.62a4.31,4.31,0,0,1-2.77-.8,2.55,2.55,0,0,1-1-2.11,3.9,3.9,0,0,1,.41-1.74,4.6,4.6,0,0,1,1.14-1.44,6,6,0,0,1,1.74-1,8.41,8.41,0,0,1,2.21-.51Zm-1.14-1.72v-5.1a5.07,5.07,0,0,0-2.34,1.26,2.8,2.8,0,0,0-.88,2,1.55,1.55,0,0,0,.67,1.32,3.62,3.62,0,0,0,2.1.48Z"/><path class="cls-1" d="M66,21c0,.21.09.31.26.31H67v1.15h-.88a1.18,1.18,0,0,1-.91-.38A1.54,1.54,0,0,1,64.87,21l0-4.81c-.26.13-.57.29-.93.49a5.75,5.75,0,0,0-1,.72,4.3,4.3,0,0,0-.79,1,2.42,2.42,0,0,0-.34,1.26,1.48,1.48,0,0,0,.6,1.35,4.22,4.22,0,0,0,1.87.5l-.09,1.14a5.28,5.28,0,0,1-1.81-.37,3.06,3.06,0,0,1-1.07-.74,2.34,2.34,0,0,1-.51-.92,3.63,3.63,0,0,1-.13-1,3.47,3.47,0,0,1,.64-2.1A6.19,6.19,0,0,1,62.8,16a8.15,8.15,0,0,1,1.77-1c.6-.24,1.08-.41,1.45-.52Zm-2.53-8.33a.73.73,0,0,1-.22.52.75.75,0,0,1-1.06,0,.73.73,0,0,1-.22-.52.75.75,0,0,1,.22-.53.75.75,0,0,1,1.06,0A.75.75,0,0,1,63.49,12.62Zm2.48,0a.75.75,0,0,1-.74.74.71.71,0,0,1-.53-.22.69.69,0,0,1-.22-.52.75.75,0,0,1,.75-.75.69.69,0,0,1,.52.22A.71.71,0,0,1,66,12.62Z"/><path class="cls-1" d="M70,22.41H67a.79.79,0,0,1-.55-.2.43.43,0,0,1,0-.75.79.79,0,0,1,.55-.2h3Z"/><path class="cls-1" d="M70,22.41a.79.79,0,0,1-.55-.2.43.43,0,0,1,0-.75.79.79,0,0,1,.55-.2h2.2a3.1,3.1,0,0,1-1.43-2.75A3.22,3.22,0,0,1,71.06,17a3,3,0,0,1,.91-1.1,4.11,4.11,0,0,1,1.41-.68A7,7,0,0,1,75.84,15c.19,0,.43,0,.71.08v7.29Zm1.91-3.86a2.21,2.21,0,0,0,.86,1.78,5.27,5.27,0,0,0,2.66,1V16.16h-.22a6.75,6.75,0,0,0-1.19.1,3,3,0,0,0-1.07.36,2.1,2.1,0,0,0-.75.73A2.29,2.29,0,0,0,71.88,18.55Zm3.59-6.24a.75.75,0,0,1-.75.75.75.75,0,0,1-.53-.22.73.73,0,0,1-.22-.53.75.75,0,0,1,.75-.75.73.73,0,0,1,.53.22A.75.75,0,0,1,75.47,12.31Z"/><path class="cls-1" d="M78.31,22.41V10.86h1.14v10.4h1v1.15Z"/><path class="cls-1" d="M84.4,22.41h-4a.81.81,0,0,1-.55-.2.43.43,0,0,1,0-.75.81.81,0,0,1,.55-.2h4Z"/><path class="cls-1" d="M84.4,22.41a.81.81,0,0,1-.55-.2.43.43,0,0,1,0-.75.81.81,0,0,1,.55-.2H86a4.08,4.08,0,0,1-.59-1.16,4.34,4.34,0,0,1-.22-1.41,4.59,4.59,0,0,1,.23-1.45A3.83,3.83,0,0,1,86,16a3,3,0,0,1,1-.82,2.46,2.46,0,0,1,2.32,0,3,3,0,0,1,.94.82,3.83,3.83,0,0,1,.64,1.2,4.59,4.59,0,0,1,.23,1.45,4.34,4.34,0,0,1-.22,1.41,4.08,4.08,0,0,1-.59,1.16H91.9v1.15Zm3.26-9.56a.71.71,0,0,1-.22.52.76.76,0,0,1-.53.21.74.74,0,0,1-.53-.21.67.67,0,0,1-.22-.52.73.73,0,0,1,.22-.54.71.71,0,0,1,.53-.22.73.73,0,0,1,.53.22A.77.77,0,0,1,87.66,12.85Zm-1.35,5.83a3.14,3.14,0,0,0,.47,1.72,1.71,1.71,0,0,0,1.14.86h.46a1.75,1.75,0,0,0,1.15-.86A3.22,3.22,0,0,0,90,18.68a3.33,3.33,0,0,0-.15-1,2.76,2.76,0,0,0-.39-.83,2.2,2.2,0,0,0-.58-.56,1.31,1.31,0,0,0-1.42,0,2.12,2.12,0,0,0-.6.56,2.76,2.76,0,0,0-.39.83A3.33,3.33,0,0,0,86.31,18.68Zm3.83-5.83a.67.67,0,0,1-.22.52.74.74,0,0,1-.53.21.72.72,0,0,1-.52-.21.67.67,0,0,1-.22-.52.73.73,0,0,1,.22-.54.69.69,0,0,1,.52-.22.71.71,0,0,1,.53.22A.73.73,0,0,1,90.14,12.85Z"/><path class="cls-1" d="M93.86,22.41h-2a.81.81,0,0,1-.55-.2.43.43,0,0,1,0-.75.81.81,0,0,1,.55-.2h2Z"/><path class="cls-1" d="M93.86,22.41a.81.81,0,0,1-.55-.2.43.43,0,0,1,0-.75.81.81,0,0,1,.55-.2h3V15.65H98v5.61h1v1.15Zm1.28-8a.75.75,0,0,1-.75-.75.73.73,0,0,1,.22-.53.75.75,0,0,1,.53-.22.75.75,0,0,1,.74.75.71.71,0,0,1-.22.53A.69.69,0,0,1,95.14,14.42ZM97,11.87a.81.81,0,0,1-.22.54.74.74,0,0,1-.53.23.72.72,0,0,1-.53-.23.76.76,0,0,1-.22-.54.67.67,0,0,1,.22-.52.74.74,0,0,1,.53-.21.76.76,0,0,1,.53.21A.71.71,0,0,1,97,11.87Zm.37,2.55a.73.73,0,0,1-.53-.22.75.75,0,0,1-.22-.53.75.75,0,0,1,.75-.75.75.75,0,0,1,.53.22.73.73,0,0,1,.22.53.75.75,0,0,1-.75.75Z"/><path class="cls-1" d="M103,22.41H99a.79.79,0,0,1-.55-.2.43.43,0,0,1,0-.75.79.79,0,0,1,.55-.2h4Z"/><path class="cls-1" d="M103.94,10.79h1.14V22.41H103a.79.79,0,0,1-.55-.2.43.43,0,0,1,0-.75.79.79,0,0,1,.55-.2h1Z"/><path class="cls-1" d="M106.84,10.86H108V22.41h-1.14Z"/><path class="cls-1" d="M118.37,22.41h-1.21a5.81,5.81,0,0,1-1.29-.16,4.8,4.8,0,0,1-1.34-.5,3.41,3.41,0,0,1-1.06-.94,2.41,2.41,0,0,1-.43-1.44,3.38,3.38,0,0,1,.31-1.44,4.91,4.91,0,0,1,.79-1.17,6.34,6.34,0,0,1,1.09-.91,10.48,10.48,0,0,1,1.2-.67,11,11,0,0,1,1.11-.44,8.08,8.08,0,0,1,.83-.23Zm-1.15-1.19V16.11c-.26.12-.57.28-.92.47a5.5,5.5,0,0,0-1,.69,4.15,4.15,0,0,0-.79.93,2.22,2.22,0,0,0-.33,1.19,1.31,1.31,0,0,0,.28.86,2.06,2.06,0,0,0,.73.57,3.31,3.31,0,0,0,1,.31,5.32,5.32,0,0,0,.94.09ZM116,12.62a.75.75,0,0,1-.75.74.71.71,0,0,1-.53-.22.69.69,0,0,1-.22-.52.75.75,0,0,1,.75-.75.73.73,0,0,1,.53.22A.75.75,0,0,1,116,12.62Zm2.48,0a.75.75,0,0,1-1.49,0,.71.71,0,0,1,.22-.53.74.74,0,0,1,1,0A.71.71,0,0,1,118.52,12.62Z"/><path class="cls-1" d="M121.49,22.91a12.37,12.37,0,0,1-.09,1.48,4,4,0,0,1-.39,1.36,2.62,2.62,0,0,1-.9,1,2.93,2.93,0,0,1-1.61.39V26a1.75,1.75,0,0,0,1-.26,1.64,1.64,0,0,0,.56-.69,3,3,0,0,0,.23-1c0-.37,0-.75,0-1.15V15.63h1.14v5.63h1v1.15h-1Z"/><path class="cls-1" d="M124.44,22.41h-2a.81.81,0,0,1-.55-.2.43.43,0,0,1,0-.75.81.81,0,0,1,.55-.2h2Z"/><path class="cls-1" d="M127.4,22.41h-3a.81.81,0,0,1-.55-.2.43.43,0,0,1,0-.75.81.81,0,0,1,.55-.2h3Z"/><path class="cls-1" d="M129.6,15.63h1.15v6.78H127.4a.81.81,0,0,1-.55-.2.43.43,0,0,1,0-.75.81.81,0,0,1,.55-.2h2.2ZM131,12.91a2.37,2.37,0,0,0-1-.22.89.89,0,0,0-.46.11.44.44,0,0,0-.18.4.64.64,0,0,0,.33.61,1.58,1.58,0,0,0,.82.19h.55v.57h-2.95V14h.95c-.06,0-.12-.12-.18-.29a1.44,1.44,0,0,1-.09-.51.92.92,0,0,1,.38-.84,1.39,1.39,0,0,1,.81-.25,3,3,0,0,1,1.19.25Z"/><path class="cls-1" d="M132.53,10.86h1.14V22.41h-1.14Z"/><path class="cls-1" d="M135.17,15.85a5,5,0,0,1,1.12-.7,3.7,3.7,0,0,1,1.63-.33,3.18,3.18,0,0,1,1.54.36,3.25,3.25,0,0,1,1.09,1,4.23,4.23,0,0,1,.65,1.35,5.79,5.79,0,0,1,.21,1.55,6.93,6.93,0,0,1-.09,1.14,9,9,0,0,1-.24,1,5.3,5.3,0,0,1-.29.76c-.1.22-.18.37-.24.48H135.1V21.26h4.73c.09-.22.18-.51.29-.88a5.11,5.11,0,0,0,.15-1.34,4.2,4.2,0,0,0-.16-1.18,3.3,3.3,0,0,0-.47-1,2.27,2.27,0,0,0-.74-.67,2.13,2.13,0,0,0-1-.25,2.92,2.92,0,0,0-.94.17,4.53,4.53,0,0,0-1.1.6Z"/><path class="cls-1" d="M199.11,33.9c.12-12.8-2.7-20-5.13-23.49.83-1.1,1.34-1.77,1.38-1.8a2.42,2.42,0,0,1,1.54-.76,28.35,28.35,0,0,1,.86-3.69,20.55,20.55,0,0,1-3.26,1.89,2.29,2.29,0,0,1-.31,1.68l-1.07,1.43A15.34,15.34,0,0,0,189,5.72c-.43-.24-.9-.48-1.4-.71a2.41,2.41,0,0,0-.66-1.8,1.32,1.32,0,0,0-.76-1h0a1.61,1.61,0,0,0-1.35.37,3,3,0,0,0-1.82,1,34.66,34.66,0,0,0-5.14-.67,3,3,0,0,0-1.6-2A1.7,1.7,0,0,0,175,0h0a1.67,1.67,0,0,0-1.25.85,3,3,0,0,0-1.6,2,34.66,34.66,0,0,0-5.14.67,3.06,3.06,0,0,0-1.82-1,1.62,1.62,0,0,0-1.35-.37h0a1.31,1.31,0,0,0-.75,1,2.37,2.37,0,0,0-.66,1.8c-.5.23-1,.47-1.41.71A13.55,13.55,0,0,0,157,9.11l-1-1.29a2.24,2.24,0,0,1-.32-1.68,20.75,20.75,0,0,1-3.26-1.9,27.93,27.93,0,0,1,.87,3.7,2.53,2.53,0,0,1,1.54.75l1.22,1.6c-2.45,3.49-5.3,10.72-5.18,23.6,0,1.2-.5,12.36,3.14,19.88a17.76,17.76,0,0,0,3.49,4.65,13.28,13.28,0,0,0,5.8,3.23l.27.07a8.75,8.75,0,0,0,6-.23l-.14.34c0,.09-.09.23-.12.31-.51,1.38-.17,2.82,1.7,3a4.79,4.79,0,0,1,1.7.38,5.3,5.3,0,0,1,1.51,1.13,6.66,6.66,0,0,1,1,1.35h0a6.66,6.66,0,0,1,.95-1.35,5.32,5.32,0,0,1,1.52-1.13,4.79,4.79,0,0,1,1.69-.38c1.87-.21,2.22-1.64,1.71-3l-.13-.31-.14-.34c1.3.76,5.29,1.34,9.11-1.09A15.79,15.79,0,0,0,196,53.83C199.61,46.31,199.12,34.92,199.11,33.9Zm-16.9-10.32a.73.73,0,0,1-.27.25,1,1,0,0,1-.62.14.65.65,0,0,1-.6-.3,11.11,11.11,0,0,1-1.17-2.29l-.91-2.22A13.17,13.17,0,0,0,177.58,17a5.19,5.19,0,0,0-1.51-1.28,4.51,4.51,0,0,0-1.36-.29,8.55,8.55,0,0,0-2.24.18,2.37,2.37,0,0,0-1.12.6,1.05,1.05,0,0,1-.34.29,3.9,3.9,0,0,0-1,.56,1.26,1.26,0,0,0-.28,1.95h0c0-.25,0-.46.05-.45a1.73,1.73,0,0,0,1.1.2c.47-.06.76.65.76.65l.08-.21a1.92,1.92,0,0,0,.27.55.26.26,0,0,0,.07-.1c.15.17.37.28.39.57a1.11,1.11,0,0,1-.45.81c-.12.12-.86.73-1.65,1.53-.41.42-.61.67-1,1.12a1,1,0,0,1-.62.39h-.1a.7.7,0,0,1-.51-.23l-6-7.93c3.47-3.39,9.23-3.95,10.66-3.84.34,0,.72.29.3.84a2.57,2.57,0,0,0,1.91-.37,2.6,2.6,0,0,0,1.92.37c-.43-.55,0-.82.29-.84A15.12,15.12,0,0,1,187.92,16C186.05,18.5,183.55,21.63,182.21,23.58Z"/><path class="cls-2" d="M198.33,30.4a34,34,0,0,1-5.41,3.65l-.87.47V33.9a34.14,34.14,0,0,0-3.87-15.82c-.26.35-1.12,1.45-2,2.58a1.8,1.8,0,0,1,1.54.55,15.78,15.78,0,0,1,3,4.92,13.07,13.07,0,0,1,.69,4.61h0s-.5,8.61-1.48,16.86c-.89,7.5-1.39,8.48-1.39,8.48a5.34,5.34,0,0,1-.94-2.07l-.08.07a6.43,6.43,0,0,1-.84-2.22,32.85,32.85,0,0,1-.38-6.14h0a2.69,2.69,0,0,0-.33-1.15,4.91,4.91,0,0,1-.39-1h0a6.91,6.91,0,0,0-2.18-3.67,10.86,10.86,0,0,1-1.52-2.5l-.06,0a2.13,2.13,0,0,0-.68.95,9.51,9.51,0,0,1,.06,3,1.63,1.63,0,0,1-.29-.23c.09.89-.33,1.92-.06,2.74l-.53-.07.06.13a.77.77,0,0,0,.27.23l.17.08.54.19a1.6,1.6,0,0,0-.23-1.68c-.25-.3.05-.75.57-.52a7.51,7.51,0,0,1,2.17,1.45c1.1,1,1.42,2,1.19,2.25s-.32.12-.54,0a.2.2,0,0,1,0,.11.6.6,0,0,1-.47.41l0,0c-.12.17-.31.23-.64.22a1.88,1.88,0,0,1-.65-.19,1,1,0,0,1-.21-.16l-.2.16a46.72,46.72,0,0,1,3.73,5.23,16.58,16.58,0,0,1,1.25,2.79,2.27,2.27,0,0,1-1,0,3.92,3.92,0,0,1,.28,1.55,3.14,3.14,0,0,1-1.69-.39c0,.09,0,.19,0,.29l1.39,1c-2.61,1.23-6.39.67-6.47.66l-.48-.07-.1.24c.26.6.85,2,1,2.29a8.72,8.72,0,0,0,5.58.87,7.53,7.53,0,0,0,1.42-.39,14.63,14.63,0,0,0,4.48-2.89,17.31,17.31,0,0,0,3.37-4.32c2.89-5.64,3.36-14,3.36-17.4,0-1.11,0-1.71,0-1.76C198.44,33.11,198.38,31.25,198.33,30.4Z"/><path class="cls-2" d="M170.16,60.07c.11-.31.64-1.56.91-2.19,0-.11-.08-.22-.11-.33l-1.08.15c-.25,0-3.85.58-6.46-.65.32-.22.92-.71,1.72-1.23l0-.16a3.12,3.12,0,0,1-1.69.39,3.89,3.89,0,0,1,.28-1.55,2.18,2.18,0,0,1-1,0A16.71,16.71,0,0,1,164,51.7a31,31,0,0,1,2.86-4,2,2,0,0,1,.5-.9l.16-.18-.31-.25a.9.9,0,0,1-.26.2,1.7,1.7,0,0,1-.64.19c-.33,0-.52,0-.64-.22l0,0a.63.63,0,0,1-.48-.4.57.57,0,0,1,0-.13.42.42,0,0,1-.48-.06c-.23-.2.09-1.21,1.19-2.25A7.31,7.31,0,0,1,168,42.17c.51-.23.82.21.57.52a1.57,1.57,0,0,0-.23,1.68l.48-.17a.83.83,0,0,0,.44-.31l.05-.11-.46,0c.23-.58-.13-2,.11-2.9a1.81,1.81,0,0,1-.31.18,11.18,11.18,0,0,1-.08-2.8,1.92,1.92,0,0,0-.57-.79,8.93,8.93,0,0,1-1.46,2.39,6.91,6.91,0,0,0-2.17,3.67h0a5.48,5.48,0,0,1-.38,1,2.51,2.51,0,0,0-.33,1.15h0a33.61,33.61,0,0,1-.39,6.13,6.57,6.57,0,0,1-.83,2.23l-.09-.07a5.34,5.34,0,0,1-.94,2.07s-.49-1-1.39-8.48c-1-8.25-1.48-16.87-1.48-16.87h0a13.07,13.07,0,0,1,.69-4.61,16,16,0,0,1,3-4.92,1.84,1.84,0,0,1,1.7-.53l-.34-.46c-.56-.75-1.22-1.57-1.78-2.31-4,7.1-3.93,15.56-3.93,15.64v.9l-.71-.38a34.3,34.3,0,0,1-5.58-3.74c0,.86-.13,3.78-.13,3.78V36c0,3.39.61,11.7,3.37,17.41a17.17,17.17,0,0,0,3.28,4.37,12.72,12.72,0,0,0,4.9,2.86l.42.14a8.73,8.73,0,0,0,6.67-.6Z"/><path class="cls-2" d="M171.87,62.22a36.24,36.24,0,0,1,.43-3.8,2,2,0,0,1-.63.47s-.1,0-.17-.13L170,62.49A1.74,1.74,0,0,1,171.87,62.22Z"/><path class="cls-2" d="M178,63.22a41.54,41.54,0,0,0-.64-5.48l-.09-.13-.15-.22a7.58,7.58,0,0,1-.36,1,2.24,2.24,0,0,1-.52.8A3.76,3.76,0,0,1,175,57.61a3.74,3.74,0,0,1-1.27,1.56,2.45,2.45,0,0,1-.52-.81c-.08-.18-.15-.36-.21-.53a42.8,42.8,0,0,0-.57,5.39c-1.57-1-2.52,0-2.2.72,0,.06.07.12.11.17a1,1,0,0,0,.78.41A4.85,4.85,0,0,1,173,65a6.18,6.18,0,0,1,2.2,1.8,6.08,6.08,0,0,1,2.19-1.8,4.92,4.92,0,0,1,1.93-.44,1.11,1.11,0,0,0,.78-.41,1,1,0,0,0,.1-.17C180.51,63.21,179.57,62.18,178,63.22Z"/><path class="cls-2" d="M178.56,58.89a1.9,1.9,0,0,1-.53-.37,29,29,0,0,1,.47,3.7,1.76,1.76,0,0,1,1.9.27l-1.54-3.94C178.72,58.75,178.59,58.9,178.56,58.89Z"/><path class="cls-3" d="M172.62,27.63h0"/><polyline class="cls-3" points="171.75 28 171.75 28 171.75 28"/><path class="cls-3" d="M185.89,32.15a1.58,1.58,0,0,1-.81,1.15c-.26-.83-.42-1.49.76-3.93-.81,2.4-.46,3.19-.46,3.19A1.2,1.2,0,0,0,185.89,32.15Zm-1.29-1.67s-.28-.54.44-2.62c-1.32,2-.74,3.36-.74,3.36a1.78,1.78,0,0,0,.87-1.09A1.24,1.24,0,0,1,184.6,30.48Zm4.71-3.55c-.22,2.11-.39,2.54-.61,2.9a1.37,1.37,0,0,1-.34-.56,1.53,1.53,0,0,0,.35,1.28C189.15,30,189.46,28.83,189.31,26.93Zm-.42-1.4c-.33,2.35-.7,2.89-1,3.29a2.23,2.23,0,0,1-.36-.72,1.73,1.73,0,0,0,.33,1.44A5.81,5.81,0,0,0,188.89,25.53Zm-1.76,2.27a3.28,3.28,0,0,1-.17-1.27,2.16,2.16,0,0,0,.1,2.06,6.1,6.1,0,0,0,1.22-3.94A6.77,6.77,0,0,1,187.13,27.8Zm-.85-1.34a6.29,6.29,0,0,1-.07-1.65,3.13,3.13,0,0,0-.07,2.51,5.68,5.68,0,0,0,1.48-3.66A5.79,5.79,0,0,1,186.28,26.46Zm2.87,4a1,1,0,0,0,.39.79,3.89,3.89,0,0,0,.42-2.68,5,5,0,0,1-.5,2.13S189.19,30.55,189.15,30.44Zm.79.73a.86.86,0,0,0,.38.68,3.35,3.35,0,0,0,.27-2.37,4.32,4.32,0,0,1-.4,1.92A.92.92,0,0,1,189.94,31.17ZM161.27,29.9c-.22-.36-.39-.8-.61-2.9a5.53,5.53,0,0,0,.6,3.62,1.57,1.57,0,0,0,.36-1.28A1.51,1.51,0,0,1,161.27,29.9Zm.78-1c-.26-.4-.64-.94-1-3.29a5.86,5.86,0,0,0,1,4,1.74,1.74,0,0,0,.33-1.45A2.06,2.06,0,0,1,162.05,28.89Zm.8-1a6.62,6.62,0,0,1-1.16-3.15,6.1,6.1,0,0,0,1.22,3.94A2.19,2.19,0,0,0,163,26.6,3.52,3.52,0,0,1,162.85,27.87Zm.84-1.34a5.72,5.72,0,0,1-1.33-2.8,5.63,5.63,0,0,0,1.47,3.66,3.13,3.13,0,0,0-.07-2.51A6.29,6.29,0,0,1,163.69,26.53Zm-3.18,4.22a5.18,5.18,0,0,1-.49-2.13,3.86,3.86,0,0,0,.41,2.68,1,1,0,0,0,.4-.79C160.78,30.62,160.51,30.75,160.51,30.75Zm-.73.72a4.32,4.32,0,0,1-.4-1.92,3.39,3.39,0,0,0,.28,2.37.89.89,0,0,0,.37-.69C160,31.33,159.78,31.47,159.78,31.47Zm4.81,1.16a1.27,1.27,0,0,1-.51-.41,1.58,1.58,0,0,0,.81,1.15c.26-.83.42-1.49-.76-3.93C164.94,31.83,164.59,32.63,164.59,32.63Zm.78-2.08a1.19,1.19,0,0,1-.56-.35,1.75,1.75,0,0,0,.86,1.09s.58-1.38-.74-3.36C165.65,30,165.37,30.55,165.37,30.55Zm5.9,10.12a5.72,5.72,0,0,0-.55-2.46,1,1,0,0,0-.12.49,3.31,3.31,0,0,1-.57-1.39,7,7,0,0,1-.44,1.47,1.12,1.12,0,0,0,.47-.17C170.26,39.51,171,39.71,171.27,40.67Zm7.87-1.9a1,1,0,0,0-.13-.49,5.83,5.83,0,0,0-.55,2.46c.27-1,1-1.17,1.21-2.07a.9.9,0,0,0,.48.17,6.07,6.07,0,0,1-.45-1.46A3.41,3.41,0,0,1,179.14,38.77Zm-5.82-1.08a6.3,6.3,0,0,0-.78-2.12A2.47,2.47,0,0,0,173.32,37.69Zm3,1.2a4.69,4.69,0,0,0,.63-2.61A4.49,4.49,0,0,0,176.29,38.89Zm-.95.62a2.15,2.15,0,0,0,0-1.81A2.29,2.29,0,0,0,175.34,39.51Zm-.73-1.94a2.42,2.42,0,0,0-.13-2A2.61,2.61,0,0,0,174.61,37.57Zm5.18-6.6a8.36,8.36,0,0,0-.72,2.42C179.23,33.25,180.05,31.31,179.79,31Zm0-2.2s.75-1.31.32-2C179.66,26.86,179.83,28.78,179.82,28.77Zm-2.14,3.15a3.83,3.83,0,0,0,1.12-2.51,2.48,2.48,0,0,1-1.12,1.33,1.7,1.7,0,0,1-.64-.88A2.35,2.35,0,0,0,177.68,31.92ZM180,30.33c.32-.49.75-1.21.39-1.67A12.28,12.28,0,0,0,180,30.33Zm-3.62,5.47a4.35,4.35,0,0,0,.61-2.34A3.86,3.86,0,0,0,176.34,35.8ZM178,34.31a3,3,0,0,0,.75-2.83A6.34,6.34,0,0,0,178,34.31Zm-1.5-3a3.5,3.5,0,0,1-1,1.63,3,3,0,0,1-.71-1,2.1,2.1,0,0,0,.89,2A3.35,3.35,0,0,0,176.52,31.34Zm-3,2.86a3.46,3.46,0,0,1-1-1.08,4.68,4.68,0,0,0,1.39,2.15,3.65,3.65,0,0,0,.2-2.85A6.21,6.21,0,0,1,173.52,34.2Zm-4.06-7.68c-.09-.56.6-1.07.36-2A1.76,1.76,0,0,0,169.46,26.52Zm1.39,6.62a5.7,5.7,0,0,0,1,1.26c-.48-.73-.87-2.09-1.35-2.46A2.57,2.57,0,0,0,170.85,33.14Zm-.34-3a2.83,2.83,0,0,0,.88,2.24A3.58,3.58,0,0,0,170.51,30.1Zm.81-2.13a7.47,7.47,0,0,1-.13,1.46,1.67,1.67,0,0,1-.7-.5,5.74,5.74,0,0,0,1.11,1.57A3.89,3.89,0,0,0,171.32,28Zm-.5-2.92A19,19,0,0,1,172,22.61,2.42,2.42,0,0,0,170.82,25.05Zm-1,5a6.32,6.32,0,0,0-.56-2.45A4.66,4.66,0,0,0,169.84,30Zm2.84-3.75c-.77.95.41,2.14.4,2.16S173.18,26.63,172.68,26.27Zm.56-2.6a1.41,1.41,0,0,0-.39,2.09A7.78,7.78,0,0,0,173.24,23.67Zm.67,7.65a3.55,3.55,0,0,0,.45-2.58,2.07,2.07,0,0,1-.74,1.46,1.76,1.76,0,0,1-.65-.81A2.34,2.34,0,0,0,173.91,31.32Zm5.77-7.51a6.77,6.77,0,0,0,.69,2.21A2,2,0,0,0,179.68,23.81Zm-1.53-2.53c-.1.54.78,1.37.77,1.37A1.32,1.32,0,0,0,178.15,21.28Zm1.28,4.16a3.07,3.07,0,0,1-.78,1.66,5.22,5.22,0,0,1-.77-.8,3.34,3.34,0,0,0,.8,1.91A3,3,0,0,0,179.43,25.44ZM177,23.2c-.45.49,0,1.47.24,2.35C177.49,25.12,177.78,23.66,177,23.2Zm.4-1.39a1.24,1.24,0,0,0-1.12-1.33C176.23,21,177.09,21.3,177.41,21.81ZM176.33,20c.22.23.94.4,1.35.77A1,1,0,0,0,176.33,20Zm-1,2.81a1.1,1.1,0,0,0-.26,1.37S175.92,23.24,175.34,22.78Zm1,7.17a3.78,3.78,0,0,0,1-2.49,5.79,5.79,0,0,1-1,1.29,4.48,4.48,0,0,1-.85-.79A3.33,3.33,0,0,0,176.38,30Zm-1.29-4.61a2.28,2.28,0,0,0,0,2.36S175.62,26.09,175.09,25.34Zm.26-8.29c.22.22.89.5,1.27.85C176.57,17.32,176.06,17,175.35,17.05Zm.36.67a2.16,2.16,0,0,0-1.2-.68A1.39,1.39,0,0,0,175.71,17.72Zm1.39,1.19a1.35,1.35,0,0,0-1-.72,2.55,2.55,0,0,1,.36.6,2.78,2.78,0,0,1-.61.13A1.42,1.42,0,0,0,177.1,18.91ZM171,17.23c-.06,0-.12.23.1.23a.22.22,0,0,0,.22-.19S171.09,17.17,171,17.23Zm5.91-11.59-.58-.42c-.2.13-.42.32-.57.43l.56.42Zm-3.62,11.09a.59.59,0,0,1,0,.37.56.56,0,0,1-.48.54.6.6,0,0,1-.77-.53.72.72,0,0,1,.08-.32c-.13,0-.13.1-.25.25s-.19.08-.36.2a1,1,0,0,1,.52-.71,4.25,4.25,0,0,1,2.84.28,8.47,8.47,0,0,0-1-.06Zm-.19,0s-.36,0-.39,0,.19.17.27.19.1,0,.14-.07S173.15,16.76,173.1,16.74Zm4.72-8.3a44.25,44.25,0,0,0-10.91.87,4.32,4.32,0,0,0-.52-1c-.71-.76-1,.07-1,.17.9.05,1.06.51,1.06.51a2.23,2.23,0,0,1-.87.86,3.32,3.32,0,0,1-1.53.53c-1.68.08-1.22-1.67-.2-2.39-.13.16-.74,1.08-.36,1.55s2,.09,2.35-.38a1.52,1.52,0,0,0-1.14-.2,2.52,2.52,0,0,1,1-1.68,2.42,2.42,0,0,1,1.4,1.21,43.16,43.16,0,0,1,7.19-.85c-.06-.43-.21-2-.21-2.14,0-.26.15-.38.32-.49a1.23,1.23,0,0,0,.78.63,3.35,3.35,0,0,1-.5.43c0,.32.05.91.06,1.14a9.81,9.81,0,0,1,1.64-.57,2.91,2.91,0,0,1,.75-.07,1.34,1.34,0,0,1,.65.28.73.73,0,0,1,.27.52A3.05,3.05,0,0,1,177.82,8.44Zm-.58-1c-.34-.57-1.64-.06-2.46.28.48,0,.88,0,1.39,0l1.1,0A.28.28,0,0,0,177.24,7.39Zm-11.61,3-.5-.15c-.13.18-.26.43-.35.58l.69.22.26-.4.48.15c.15-.23.21-.34.38-.58l-.71-.22A3.34,3.34,0,0,0,165.63,10.4Zm20.58-2.08c.55,0,1.06.09,1.29-.16a1.7,1.7,0,0,1-.81-.37c.15-.12.36,0,.47.14l.2-.19a.71.71,0,0,0-1,.18,1.59,1.59,0,0,1,.32.18A2.48,2.48,0,0,0,186.21,8.32Zm-.32,1c-.23.52-.42,1-.68,1.51.16.07.37-.07.51-.15a4.94,4.94,0,0,0,1.44-2.26,2.63,2.63,0,0,0-.61.17A1.06,1.06,0,0,0,185.89,9.35Zm-5.17.24c.18.17.3.3.48.49l.66-.35c-.19-.19-.31-.32-.51-.5C181.14,9.34,180.89,9.49,180.72,9.59Zm4.62-.53a2.39,2.39,0,0,1-.57.83,21.43,21.43,0,0,0-4.21-1,2.94,2.94,0,0,1-1.27.92,5.77,5.77,0,0,1-1.68-.49,3.51,3.51,0,0,0,.55,0,3.55,3.55,0,0,0,1.8-.53c-1-.15-1.24-.42-.75-1.07.22-.28.59-.81,1.12-.68s.52.71.48,1.16a20.66,20.66,0,0,1,3.82.93c.07-.32-.14-.49-.27-.72a3.48,3.48,0,0,1,.63-.53A1.22,1.22,0,0,1,185.34,9.06Zm-5.56-1.5a.68.68,0,0,0-.29.32c.09.14.26.19.53.23l.15,0C180.29,7.84,180,7.47,179.78,7.56ZM167.24,9.94l.65.29.46-.54c-.25-.11-.42-.19-.68-.29C167.51,9.57,167.35,9.8,167.24,9.94ZM196,53.83a15.79,15.79,0,0,1-6.07,6.57c-3.82,2.43-7.81,1.85-9.11,1.09l.14.34.13.31c.51,1.39.16,2.82-1.71,3a4.79,4.79,0,0,0-1.69.38,5.32,5.32,0,0,0-1.52,1.13,6.66,6.66,0,0,0-.95,1.35h0a6.66,6.66,0,0,0-1-1.35,5.3,5.3,0,0,0-1.51-1.13,4.79,4.79,0,0,0-1.7-.38c-1.87-.21-2.21-1.65-1.7-3,0-.08.09-.22.12-.31l.14-.34a8.75,8.75,0,0,1-6,.23l-.27-.07a13.28,13.28,0,0,1-5.8-3.23A17.76,17.76,0,0,1,154,53.77c-3.64-7.52-3.13-18.68-3.14-19.88-.12-12.88,2.73-20.11,5.18-23.6l-1.22-1.6a2.53,2.53,0,0,0-1.54-.75,27.93,27.93,0,0,0-.87-3.7,20.75,20.75,0,0,0,3.26,1.9A2.24,2.24,0,0,0,156,7.82l1,1.29A13.55,13.55,0,0,1,161,5.72c.44-.24.91-.48,1.41-.71a2.37,2.37,0,0,1,.66-1.8,1.31,1.31,0,0,1,.75-1h0a1.62,1.62,0,0,1,1.35.37,3.06,3.06,0,0,1,1.82,1,34.66,34.66,0,0,1,5.14-.67,3,3,0,0,1,1.6-2A1.67,1.67,0,0,1,175,0h0a1.7,1.7,0,0,1,1.25.85,3,3,0,0,1,1.6,2,34.66,34.66,0,0,1,5.14.67,3,3,0,0,1,1.82-1,1.61,1.61,0,0,1,1.35-.37h0a1.32,1.32,0,0,1,.76,1,2.41,2.41,0,0,1,.66,1.8c.5.23,1,.47,1.4.71a15.34,15.34,0,0,1,4.14,3.44l1.07-1.43a2.29,2.29,0,0,0,.31-1.68,20.55,20.55,0,0,0,3.26-1.89,28.35,28.35,0,0,0-.86,3.69,2.42,2.42,0,0,0-1.54.76s-.55.7-1.38,1.8c2.43,3.52,5.25,10.69,5.13,23.49C199.12,34.92,199.61,46.31,196,53.83Zm-1.14-40.47a11.78,11.78,0,0,1-3.09.29,6,6,0,0,0-.68,3.06,2.58,2.58,0,0,1-1.29-.73l-1.15,1.52a33.23,33.23,0,0,1,4.12,15.77,37.12,37.12,0,0,0,5.54-3.82C197.9,22.77,196.87,17.73,194.83,13.36Zm-6.42,20.13a5.42,5.42,0,0,0,.1,2.13,5.14,5.14,0,0,0,.88-1.76,4.78,4.78,0,0,0,.34,1.71,13.21,13.21,0,0,0,.76-3.53s0,.07.26.16a11.77,11.77,0,0,0-.09-4.06,13.63,13.63,0,0,0-3.15-6.27c-1.08-1.27-2-.7-2.91.3-1.47,1.6-1.78,2.3-3.54,2.63h0c-.17,0,0,.12.3.11,2.12,0,2.79-1.44,3.42-2.14.42-.47,1-.89,1.42-.63.17.1.75.77.15,2.43a1.4,1.4,0,0,0-.22-.79A10,10,0,0,1,185,26.51a3.86,3.86,0,0,1-.13-.58c-.21,1.34-1.41,2.74-1.59,4.65a1.31,1.31,0,0,1-.24-.83c-.91,1.67-1.85,4.67-1.26,6.18a9.69,9.69,0,0,1,1.4-4.43c-.62,2-1.35,4.4-.72,5.87a11,11,0,0,1,1.28-4.16c-.86,3.24-1.21,4.88-.26,6.13a9.75,9.75,0,0,1,1-4.55c-.44,2.52-1.08,4.73.1,5.83a10.89,10.89,0,0,1,.8-4.62c-.39,2.44-.73,4.79.06,6a12.7,12.7,0,0,1,.32-2.53c.21-1.07.52-2.09.52-2.09s-.24,1.7-.38,3.77c0,.35,0,.7,0,1a6.84,6.84,0,0,0,.13,1.27,3.07,3.07,0,0,0,.36,1,34,34,0,0,1,.9-6.23s-.31,2.58-.52,6.52c0,.14,0,.28,0,.41-.26,5.67.51,7.48.75,8a3.45,3.45,0,0,1-.08-.83,6.23,6.23,0,0,1,0-1.27,8.83,8.83,0,0,1-.43-2.64c0-.84.1-1.68.17-2.49s.13-1.48.21-2.17.15-1.24.24-1.89c.12-.91.3-1.82.47-2.73.13-.72.06-.09,0,.09-.06.81-.21,2.6-.35,4.43-.1,1.37-.41,4.08-.34,5.39a7.28,7.28,0,0,0,.37,1.81,8.05,8.05,0,0,0,.54,3.93s.23-.79.41-1.78a.51.51,0,0,1-.23.2,7.17,7.17,0,0,1-.23-3.27,5.24,5.24,0,0,1-.29-1.56c0-1.63.26-3.25.46-4.86.07-.54.15-1.07.22-1.56l.15-1c.07-.51.17-1,.27-1.53,0-.08,0-.16.05-.23s0,.37-.05.86c-.18,2.18-.67,7.75-.68,8.19a5.37,5.37,0,0,0,.26,1.62,11.66,11.66,0,0,0,.07,2.6,7,7,0,0,0,.17-.92s.31-2.26.67-5.47c0-.5.1-1,.16-1.49s.09-.94.14-1.43.11-1.14.16-1.72c0-.24,0-.49.07-.74.13-1.51.29-3.22.41-4.72,0,0,.21-2.45.25-3.19l-.12-.09s-.28,3-1.08,4.09a3.93,3.93,0,0,1-.47-1.71,4.82,4.82,0,0,1-.91,1.41A4.16,4.16,0,0,1,188,35a2.36,2.36,0,0,1-.83.83,3.41,3.41,0,0,1-.32-1.67,2.46,2.46,0,0,1-.68.59c-.1-.23-.64-1.09.34-4.25-.39,2.92-.16,3.26-.08,3.49a1.77,1.77,0,0,0,.44-.29,18.84,18.84,0,0,1,.31-2.08c-.15,2.32,0,3.05.21,3.5A3.78,3.78,0,0,0,188.41,33.49Zm-7.12,1a31.11,31.11,0,0,1,1.16-6.36C180.86,29.85,181.09,33.86,181.29,34.48Zm.3-6.55c.5-1.5.08-2.27-.21-2.42C181.36,26.2,181.55,26.53,181.59,27.93Zm1.28,1.25a11.46,11.46,0,0,0,.62-3.35A6.39,6.39,0,0,0,182.87,29.18Zm1.37-3a4.51,4.51,0,0,0,.06-1.68,6.77,6.77,0,0,0-.44,2.64A5.82,5.82,0,0,0,184.24,26.22ZM180.6,37.55a.1.1,0,0,1,0-.07l0,0h0a.48.48,0,0,1,.19.09l.21.13a3.58,3.58,0,0,1-.17-1.1,5.86,5.86,0,0,0-.18-1.37l0-.06a2.34,2.34,0,0,1-.4.64,2.36,2.36,0,0,0-.53,1v.09l-.07-.06c.12.11-.33-.41-.33-.42a10,10,0,0,1-1.57,2.38h0a5.19,5.19,0,0,0-.64,2.28,10,10,0,0,0,0,2.44l.4-.44a7.93,7.93,0,0,1,0,.9,2.67,2.67,0,0,1-.16.67,1.61,1.61,0,0,0,1.41-.61l.11.3c.1.28.17.62-.05.8,0,0-.42.37-.37.7a.49.49,0,0,0,.22.32h0v0a.38.38,0,0,0,.24.32.59.59,0,0,1,0-.31.4.4,0,0,1,.35-.28.65.65,0,0,1,.18,0s.1.91.18,1.29a9.89,9.89,0,0,1,.2,1.23c0,.11,0,.21,0,.32,0,.31.21.34.38.37a2.6,2.6,0,0,0,.39,0h0c-.24.07-.22.16-.22.19a1.05,1.05,0,0,1,0,.61l0,0a.71.71,0,0,0,.32-.82v0l0,0c.27-.16.2-.7-.19-1.54-.18-.39-.26-1-.14-1.1h0c.06,0,.14,0,.33.27a6.2,6.2,0,0,0,.42.55.88.88,0,0,1,.25.53.15.15,0,0,1,0,.12.21.21,0,0,1-.12,0,1.14,1.14,0,0,1-.26,0c.09.09.42.47.52.36.25-.29,0,.17.46.22a.48.48,0,0,0,.5-.52,1.36,1.36,0,0,0,0-.3,1.69,1.69,0,0,0-.43-.77l-.09-.1c-.73-.81-.67-1-.63-1.06s.14-.17.33-.17a2.88,2.88,0,0,1,.61,0c.3.05.79.13.77.29a.13.13,0,0,1-.08.08c-.1,0-.27.11-.29.06a.73.73,0,0,0,.27.2c.13.06.63.2.78,0l.05-.1c.09,0,.34,0,.39-.21s-.16-.37-.37-.48a11.3,11.3,0,0,0-1.08-.41c-.17,0-.37-.08-.53-.13l-.88-.23s-.48-.15-.65-.23l-.19-.09a1,1,0,0,1-.37-.32,3.73,3.73,0,0,1-.3-.88,1.84,1.84,0,0,0,.7.28,3.85,3.85,0,0,1,0-.79c.14-1.45.17-2.28.17-2.28l.29.3a9,9,0,0,0-.09-1.47h0A14.17,14.17,0,0,0,180.6,37.55Zm1.05,6.91.68.18.33.08a2.81,2.81,0,0,0,.16-1c0-.38.85.42,1.42,1,.24.25.29.14.15,0a8.11,8.11,0,0,0-2-1.73c-.55-.34-.83-.26-.64,0A1.73,1.73,0,0,1,181.65,44.46Zm1,5.65c.65.81,1.67,2.33,2.07,2.74.84.89,1.2,1,1.85,1a11.4,11.4,0,0,0-1.41-2.77A27.22,27.22,0,0,0,182.89,48a1.17,1.17,0,0,1-.06.45.31.31,0,0,1-.05.1.82.82,0,0,1-.23.26.79.79,0,0,1-.5.13.67.67,0,0,1-.43-.2.5.5,0,0,1-.31-.08.85.85,0,0,1-.17.7,1.19,1.19,0,0,1-.34.86l0,.07c.21.38.12.57,0,.69s-1.12,1.24-1.35,1.45a.42.42,0,0,1-.56,0l-.17-.14-.47.47s0,0,.05,0h0a4.07,4.07,0,0,0,1.16.71c.37.16,1.46.56,2.19.86-.17-.54-.38-1.15-.59-1.76.19.26.72,1.19,1.17,2,0,0,.06,0,0,0a19.36,19.36,0,0,1,2,1c0-.21-.09-.35-.09-.35a10.18,10.18,0,0,1-2.38-4c.84,1.28,1.06,1.64,1.4,2.09a4.83,4.83,0,0,0,2.64,2.07c-.15-.8-.43-1-.43-1a7.52,7.52,0,0,1-1.1-1.21c.14.19.26.36,0,0s-.13-.18,0,0A14.09,14.09,0,0,1,182.67,50.11Zm-2.93,7a17,17,0,0,0,5.67-.29,23.16,23.16,0,0,0-4.9-2.56,9.82,9.82,0,0,1-1.76-.84,9.22,9.22,0,0,1-.81-.65c-.89-.82-3.23-3.27-3.65-3.72l-1.55,1.44a57.57,57.57,0,0,0,5.16,4.58A31,31,0,0,0,183,56.7a20.54,20.54,0,0,1-5.12-1.12c-1.34-.54-5.56-4.7-5.56-4.7l-1,.95a30.89,30.89,0,0,0,3.48,3.34A9.33,9.33,0,0,0,179.74,57.15Zm-4.46-.92a2.79,2.79,0,0,0,.8,1.72,2.28,2.28,0,0,0,.36-1.07A6.82,6.82,0,0,1,175.28,56.23Zm-7-5.08a11.56,11.56,0,0,1-1.47,2.94,9.58,9.58,0,0,1-.92,1.08s0,.1-.06.26l-.12.06.62-.34.3-.15c.41-.22.86-.43,1.31-.62.44-.79,1-1.74,1.13-2a8.65,8.65,0,0,1-.63,1.77l.34-.13c.7-.28,1.3-.5,1.6-.64a4.22,4.22,0,0,0,.9-.54l.19-.18-.5-.5-.17.14a.41.41,0,0,1-.56,0c-.22-.2-1.25-1.34-1.34-1.45s-.22-.32,0-.69h0a1.22,1.22,0,0,1-.36-.89.85.85,0,0,1-.17-.7.52.52,0,0,1-.31.08.65.65,0,0,1-.43.2h-.06a.7.7,0,0,1-.46-.14.63.63,0,0,1-.25-.33l0,0a16.51,16.51,0,0,0-1.94,2.69,12,12,0,0,0-1.43,2.74c.65,0,1-.14,1.86-1,.39-.41,1.42-1.93,2.07-2.75a14.31,14.31,0,0,1-1.64,3,7.76,7.76,0,0,1-1.16,1.27s-.24.16-.4.95a4.73,4.73,0,0,0,2.65-2.07C167.18,52.78,167.39,52.43,168.24,51.15Zm-.59-4.27a1.71,1.71,0,0,0-.56,1.17.48.48,0,0,0,.5.52c.43,0,.21-.51.46-.22.1.11.43-.27.51-.36-.18,0-.46.06-.41-.21a1.18,1.18,0,0,1,.31-.54c.12-.14.47-.81.7-.73s.05.71-.14,1.1c-.39.84-.45,1.38-.18,1.54l0,0v0a.71.71,0,0,0,.32.82l0,0a1.07,1.07,0,0,1,0-.61s0-.12-.21-.19h0a2.54,2.54,0,0,0,.39,0c.16,0,.35-.06.38-.37l0-.32a11.92,11.92,0,0,1,.21-1.23c.08-.38.18-1.29.18-1.29a.65.65,0,0,1,.18,0,.41.41,0,0,1,.35.28.59.59,0,0,1,0,.31.38.38,0,0,0,.24-.32v0h0a.49.49,0,0,0,.22-.32c.05-.33-.33-.67-.37-.7-.23-.18-.15-.52,0-.8l.13-.35a1.68,1.68,0,0,0,.45.38,1.55,1.55,0,0,0,1.06.28,2.67,2.67,0,0,1-.16-.67,7.93,7.93,0,0,1,0-.9l.41.44a6.77,6.77,0,0,0,.08-2.31,8.43,8.43,0,0,0-.63-2.66,4.6,4.6,0,0,0-.34-.78.82.82,0,0,1-.32.45,6.21,6.21,0,0,1-1.08-1.81,1.81,1.81,0,0,1-.33.42l-.07.06v-.09a2.18,2.18,0,0,0-.54-1,2.56,2.56,0,0,1-.39-.64,5.62,5.62,0,0,0-.19,1.4,3.85,3.85,0,0,1-.17,1.1l.2-.12c.1-.07.15-.1.2-.1h0a.11.11,0,0,1,0,.08,14,14,0,0,0-.28,1.69,5.65,5.65,0,0,0,0,1.39,3.84,3.84,0,0,1,.45-.26,6.63,6.63,0,0,0-.12,2.32,4.73,4.73,0,0,1,0,.79,1.71,1.71,0,0,0,.63-.25,3.43,3.43,0,0,1-.29.87,2.9,2.9,0,0,1-1.68.76,10.13,10.13,0,0,0-2,.65c-.22.11-.42.33-.37.48s.29.21.38.21l0,.1c.16.24.66.1.78,0a.71.71,0,0,0,.28-.2c0,.05-.19,0-.3-.06a.11.11,0,0,1-.07-.08c0-.3,1.2-.34,1.38-.33s.25,0,.32.17S168.38,46.07,167.65,46.88ZM168,43c.18-.3-.09-.39-.64-.05a8.42,8.42,0,0,0-2,1.74c-.14.19-.09.29.15.05.57-.58,1.43-1.37,1.42-1a2.5,2.5,0,0,0,.16,1l.26-.07.75-.19A1.71,1.71,0,0,1,168,43Zm-1.25-11.39a9.69,9.69,0,0,1,1.4,4.43c.59-1.51-.35-4.51-1.26-6.18a1.31,1.31,0,0,1-.24.83c-.17-1.92-1.37-3.31-1.58-4.65a3.8,3.8,0,0,1-.14.58,10.35,10.35,0,0,1-1.09-2.73,1.45,1.45,0,0,0-.22.79c-.6-1.66,0-2.33.15-2.43.46-.26,1,.16,1.42.62.63.71,1.3,2.11,3.42,2.15.35,0,.48-.08.3-.11h0c-1.76-.33-2.07-1-3.54-2.64-.91-1-1.82-1.57-2.91-.29a13.45,13.45,0,0,0-3.14,6.27,11.53,11.53,0,0,0-.1,4.06c.25-.09.26-.16.26-.16a13.21,13.21,0,0,0,.76,3.53,4.57,4.57,0,0,0,.34-1.71,5.43,5.43,0,0,0,.88,1.76,5.07,5.07,0,0,0,.1-2.13,3.88,3.88,0,0,0,1,1.6c.18-.45.36-1.18.22-3.5a18.4,18.4,0,0,1,.3,2.08,2,2,0,0,0,.44.29c.08-.23.31-.57-.08-3.49,1,3.16.44,4,.34,4.25a2.46,2.46,0,0,1-.68-.59,3.41,3.41,0,0,1-.32,1.67,2.44,2.44,0,0,1-.83-.83,4.07,4.07,0,0,1-.22,1.58,4.93,4.93,0,0,1-.91-1.4,3.93,3.93,0,0,1-.46,1.71c-.81-1.07-1.09-4.09-1.09-4.09l-.12.09c.05.74.14,1.88.25,3.17v0c.13,1.5.28,3.21.41,4.72q.48,5.43,1.21,10.85a6.13,6.13,0,0,0,.16.91,11.63,11.63,0,0,0,.07-2.6,4.86,4.86,0,0,0,.26-1.61c0-.44-.51-6-.68-8.19,0-.27-.05-.86-.05-.86s0,.15.05.23c.17.82.3,1.66.42,2.49.08.49.15,1,.22,1.56a41.62,41.62,0,0,1,.46,4.86,5.84,5.84,0,0,1-.28,1.56,7.15,7.15,0,0,1-.24,3.27.48.48,0,0,1-.22-.2,17.36,17.36,0,0,0,.4,1.77,8,8,0,0,0,.54-3.92,7.56,7.56,0,0,0,.38-1.81c0-.34-.05-1.41-.14-2.73-.17-2.37-.37-4.73-.56-7.09,0-.12,0-.4,0-.42s.05.21.07.33a57,57,0,0,1,1.09,9.28,8.49,8.49,0,0,1-.43,2.64,5.5,5.5,0,0,1,0,1.26,3.39,3.39,0,0,1-.07.84c.23-.54,1-2.36.74-8,0-.13,0-.27,0-.42-.21-3.94-.52-6.51-.52-6.51a33.17,33.17,0,0,1,.9,6.23l.08-.14a7.65,7.65,0,0,0,.39-3.22c-.13-2.07-.38-3.77-.38-3.76l.06.17a16.58,16.58,0,0,1,.46,1.9,18.68,18.68,0,0,1,.31,2.23c0,.1,0,.21,0,.31h0c.79-1.17.45-3.53.07-6a11.21,11.21,0,0,1,.8,4.62c1.18-1.1.54-3.31.09-5.83a9.63,9.63,0,0,1,1,4.55c1-1.25.6-2.9-.26-6.13a11,11,0,0,1,1.28,4.15C168.11,36,167.38,33.54,166.76,31.57Zm10.63,7.15a3.56,3.56,0,0,0,.69-2.07c.1.12.28.23.33.46a11.15,11.15,0,0,0,1-3.26c.22.1,0,0,.27.17a10.89,10.89,0,0,0,.7-3.21c.08,0,.22,0,.27.09a28.32,28.32,0,0,0,.26-2.87,10.09,10.09,0,0,0-.31-3.16,9,9,0,0,0-1-2.15.9.9,0,0,0-.27.21c-.14-.42-.53-1.45-.72-1.82-.49-.94-.72-1.55-1.22-1.87a5,5,0,0,0,.61.05,9,9,0,0,0-.83-.8c.13-.09.34-.08.69,0-.5-.45-.67-1.14-1.94-1.62a4.31,4.31,0,0,1,.7,0A2.17,2.17,0,0,0,175.5,16c-1.31-.26-3.12-.3-4,.7a1.77,1.77,0,0,1-.49.19,1.14,1.14,0,0,0-.25.12c-.14.11-.17.26.11.66-.37-.06-.46-.41-.53-.37a1.3,1.3,0,0,0-.39.39,1.45,1.45,0,0,0-.2.74.25.25,0,0,0,.41-.19c0-.12.6-.17.8-.17s.55.06.91.05l-.68.2c-.16.05-.18.22,0,.23s.23-.05.4-.09,0,.22,0,.33c1.06-.24,1.14.89,2.26.67-.53-.42-1-1.11-1.39-1.32,1.1.18,1.71,1.17,2.9,1.22a2.57,2.57,0,0,0-.14-.32c.41,0,.7.32.82.31a1.71,1.71,0,0,1-1,.36c.09.15.53.18.68.21a1.09,1.09,0,0,1-1.06.22,4.64,4.64,0,0,1-1.19,1,2.21,2.21,0,0,1,0-.37c-.52.3-.86.84-1.24,1,.11-.19.21-.52.29-.69a17.12,17.12,0,0,0-3.13,3.28,6.5,6.5,0,0,0-.64,3.68c0,.9.43,3.45.5,4l.28-.13a21.44,21.44,0,0,0,1.8,5.36.75.75,0,0,1,.3-.4,2.5,2.5,0,0,0,.75,1.43,1.58,1.58,0,0,1,.17-.65c.12.36.05,1.49.7,2.11a3,3,0,0,1,.16-1,7.34,7.34,0,0,0,.31,1.18,2.2,2.2,0,0,0,.69,1,3.41,3.41,0,0,1,.14-1.2,3.37,3.37,0,0,1,.51,1.51c.66-.5.91-2.16.91-2.15a1.35,1.35,0,0,1,.33.62,4.41,4.41,0,0,0,.91-2A3.35,3.35,0,0,1,177.39,38.72Zm.66,8.75a7.26,7.26,0,0,0,1.3-.06c0-.09,0-.17,0-.25a1,1,0,0,1,0-.18h0a3.35,3.35,0,0,1-1.5.1c-.33-.07-.35-.08-.61-.15s-.61.32-.91.63l-.73.81s0,.05,0,.08l3.73,3.4s.09,0,.15,0,.36-.37.57-.58l-3.27-3.08c0-.05-.05-.11,0-.13l.19-.2a.1.1,0,0,1,.15,0s1.05,1,1.05,1l1.38,1.23.88.77.14-.14c.13-.14.1-.24-.35-.66l-2.25-2.25C177.63,47.55,177.79,47.47,178.05,47.47Zm-5,.68-3.26,3.07.57.59c.06.06.1.06.15,0l3.72-3.4a0,0,0,0,0,0-.08c-.15-.16-.48-.54-.73-.8s-.68-.71-.91-.64a5.15,5.15,0,0,1-.62.15,3.34,3.34,0,0,1-1.49-.09l-.07,0,0,.22c0,.07,0,.14,0,.22a6.86,6.86,0,0,0,1.35.06c.25,0,.41.09.19.34L169.62,50c-.44.42-.47.52-.34.67s0,0,.14.14l.87-.78,1.39-1.23s1-.94,1-1a.11.11,0,0,1,.15,0l.19.2A.12.12,0,0,1,173,48.15Zm.32-7.59a1.09,1.09,0,0,0-.12-.44,3.7,3.7,0,0,0-.38-.42.38.38,0,0,1-.1-.16,1.61,1.61,0,0,0,.07.53.58.58,0,0,0,.27.36A.93.93,0,0,0,173.35,40.56Zm0,6.17.28.28a9,9,0,0,0,.15-1.54A3.3,3.3,0,0,0,173.32,46.73Zm-1.3-.07a5,5,0,0,1,.6-.23l.12,0h0a8.52,8.52,0,0,1,.36-1.08A8.27,8.27,0,0,0,172,46.66Zm2.39,1.18c0-.44,0-.91-.06-1.12a2.23,2.23,0,0,0-.29.76Zm.22-2.9a1,1,0,0,0-.5-.75A1.22,1.22,0,0,0,174.63,44.94ZM175,44v0a.86.86,0,0,1,.29-.32,8.58,8.58,0,0,0,1.24-.9,1.67,1.67,0,0,0,.25-.57,1.57,1.57,0,0,1-.52.47,4.44,4.44,0,0,0-1.15.84.65.65,0,0,0-.1.27.89.89,0,0,0-.06-.2c-.22-.47-.88-.65-1.28-1.11-.26-.29-.27-.42-.27-.42a1.07,1.07,0,0,0,.18.71,3.8,3.8,0,0,0,.88.72A1.49,1.49,0,0,1,175,44Zm-.43-1.65c0-.72-.79-.8-1-1.52C173.46,41.85,174.16,41.86,174.53,42.36Zm.37,2.88a2.28,2.28,0,0,0,.32-.18,1.16,1.16,0,0,0,.48-.45.74.74,0,0,0,.07-.5.92.92,0,0,1-.31.43c-.11.11-.27.26-.36.37A1.79,1.79,0,0,0,174.9,45.24Zm.69.43c.07.43.13,1.44.14,1.77h0c.11-.12.24-.24.36-.36A3.7,3.7,0,0,0,175.59,45.67Zm-.65,2.63s.26-.31.39-.44l0,0a4.75,4.75,0,0,0-.39-1.51C174.92,46.58,174.93,47.56,174.94,48.3Zm0,.3c0,.24,0,.43,0,.52l.25-.27S175,48.67,175,48.6Zm.16.86c.46.47,1.06,1.11,1.46,1.5l.42-.41-1.56-1.43ZM177,51.32l1,1,.44-.48-1-.94Zm.31-4.81a9,9,0,0,0-1-1.13,9.93,9.93,0,0,1,.41,1.13h0l.06,0a.45.45,0,0,1,.2,0,1,1,0,0,1,.21,0Zm-.38-5.87a2.82,2.82,0,0,1-.63.73,2,2,0,0,0,.11-.5,3.58,3.58,0,0,1-.6.79,1.88,1.88,0,0,0-.55.91,2.44,2.44,0,0,1,.68-.5A2.29,2.29,0,0,0,176.88,40.64Zm-7.27-6.3a2.17,2.17,0,0,0,.93,1.66A5.47,5.47,0,0,0,169.61,34.34ZM181.32,24a1,1,0,0,0,.62-.14.73.73,0,0,0,.27-.25c1.34-1.95,3.84-5.08,5.71-7.55a15.12,15.12,0,0,0-10.72-3.92c-.34,0-.72.29-.29.84a2.6,2.6,0,0,1-1.92-.37,2.57,2.57,0,0,1-1.91.37c.42-.55,0-.82-.3-.84-1.43-.11-7.19.45-10.66,3.84l6,7.93a.7.7,0,0,0,.51.23h.1a1,1,0,0,0,.62-.39c.41-.45.61-.7,1-1.12.79-.8,1.53-1.41,1.65-1.53a1.11,1.11,0,0,0,.45-.81c0-.29-.24-.4-.39-.57a.26.26,0,0,1-.07.1,1.92,1.92,0,0,1-.27-.55l-.08.21s-.29-.71-.76-.65a1.73,1.73,0,0,1-1.1-.2s-.07.2-.05.45h0a1.26,1.26,0,0,1,.28-1.95,3.9,3.9,0,0,1,1-.56,1.05,1.05,0,0,0,.34-.29,2.37,2.37,0,0,1,1.12-.6,8.55,8.55,0,0,1,2.24-.18,4.51,4.51,0,0,1,1.36.29A5.19,5.19,0,0,1,177.58,17a13.17,13.17,0,0,1,1.06,2.13l.91,2.22a11.11,11.11,0,0,0,1.17,2.29A.65.65,0,0,0,181.32,24Zm6.88-8.31.39-.52a16.74,16.74,0,0,0-7.18-3.72A19.34,19.34,0,0,0,177,11c-.79,0-1.3.32-1.3.81-.49-.09-.63-.71-.69-.82-.05.26-.29.76-.68.82,0-.49-.51-.8-1.31-.81a19.27,19.27,0,0,0-4.42.44A16,16,0,0,0,161.43,15l.39.51a14.81,14.81,0,0,1,5.89-3.29,19,19,0,0,1,5.16-.69c.93,0,1.06.57.95.86a1.55,1.55,0,0,0,1.17-.56,1.55,1.55,0,0,0,1.17.56c-.11-.29,0-.81,1-.86a19.1,19.1,0,0,1,5.16.69A15.5,15.5,0,0,1,188.2,15.66Zm1.05-1.89a3.56,3.56,0,0,0,1,1.9,1.67,1.67,0,0,0,.26.17h0a5.78,5.78,0,0,1,.77-2.78h0a5.91,5.91,0,0,0,2.42,0c-1.23-.83-1-1.76-1.87-2.77a3.58,3.58,0,0,0-.34-.33,1.52,1.52,0,0,0-.74-.32.5.5,0,0,0-.43.19c-.12.13-1.4,1.5-2.24,2.45C188.83,12.28,189,13,189.25,13.77Zm.84-4.55a13,13,0,0,0-3.86-2.5C182,4.84,176.55,4.84,175,4.84h0c-1.55,0-7,0-11.24,1.88a13.14,13.14,0,0,0-3.86,2.5s1.94,2.17,2.44,2.75a.93.93,0,0,1,.19,1c3-2,6.34-3,12.35-3h.27c5.91.06,9.38,1,12.32,3a.91.91,0,0,1,.2-1C188.16,11.39,190.09,9.22,190.09,9.22Zm-30.41.63h0c-.12-.14-.42-.4-1.16.13-1.33,1.14-.9,2.18-2.26,3.1a6.53,6.53,0,0,0,1.2.12,5,5,0,0,0,.58,0l.63-.1h0a5.78,5.78,0,0,1,.76,2.77c1.6-.85.95-3.57,2.43-3.54Zm1,5.49,2.22,3a11.82,11.82,0,0,0,1.8,2,21.1,21.1,0,0,0-1.41-2.06c-.78-1.06-1.61-2.16-2.41-3.24C160.83,15.14,160.77,15.25,160.71,15.34Zm5.77,10.55a11.46,11.46,0,0,0,.62,3.36A6.36,6.36,0,0,0,166.48,25.89Zm-.8-1.28a4.51,4.51,0,0,0,0,1.68,6.85,6.85,0,0,0,.38,1A6.8,6.8,0,0,0,165.68,24.61Zm3,9.94c.2-.63.43-4.64-1.15-6.36A32,32,0,0,1,168.68,34.55Zm-4.36,22.34a17.18,17.18,0,0,0,5.66.29,9.51,9.51,0,0,0,4.46-1.63c-.31-.27-.69-.61-1.08-1a7.2,7.2,0,0,1-1.53,1,20.09,20.09,0,0,1-5.13,1.12,31,31,0,0,0,5.13-1.58,8.42,8.42,0,0,0,1.18-.91l-1.33-1.3c-.24.21-.44.36-.7.55a10,10,0,0,1-1.77.85A23.25,23.25,0,0,0,164.32,56.89Zm9.06,0a6.94,6.94,0,0,0,.44,1.07,3.14,3.14,0,0,0,.93-1.91c-.13.11-.36.29-.54.41Zm13.86-38.66c.16-.23,1-1.31,2.06-2.76a2.69,2.69,0,0,1-.22-.28c-.75,1-1.51,2-2.24,3a19.52,19.52,0,0,0-1.4,2A11.63,11.63,0,0,0,187.24,18.22Zm6.27-7.2-.39.52a3.75,3.75,0,0,0,1.66,1.75A23,23,0,0,0,193.51,11Zm-.89-.53.18.31L197,5.17A13.92,13.92,0,0,1,195,6.35a2.58,2.58,0,0,1-.45,1.7C194.43,8.13,193.7,9.08,192.62,10.49Zm-35.26-.84c.1.14.21.29.33.44a14.38,14.38,0,0,1,6.51-4.62,1.29,1.29,0,0,1,.27-1.77h0A1.54,1.54,0,0,1,166,4.89a32.7,32.7,0,0,1,7.26-1,2.46,2.46,0,0,1,1.44-2.34.58.58,0,0,1,.31-.48h0a.61.61,0,0,1,.31.48,2.44,2.44,0,0,1,1.43,2.34,32.8,32.8,0,0,1,7.27,1,1.54,1.54,0,0,1,1.5-1.19h0a1.3,1.3,0,0,1,.27,1.77,14.71,14.71,0,0,1,6.58,4.68l.34-.45a15.39,15.39,0,0,0-6-4.41,1.72,1.72,0,0,0-.44-1.83.82.82,0,0,0-.36-.67h0a1.06,1.06,0,0,0-.78.31,2.18,2.18,0,0,0-1.68,1.15,32.52,32.52,0,0,0-6.11-.81A2.56,2.56,0,0,0,175.8,1.2,1.2,1.2,0,0,0,175,.51a1.19,1.19,0,0,0-.8.69,2.55,2.55,0,0,0-1.53,2.24,32.52,32.52,0,0,0-6.11.81,2.16,2.16,0,0,0-1.68-1.15,1,1,0,0,0-.78-.31h0a.79.79,0,0,0-.37.67,1.73,1.73,0,0,0-.44,1.83A14.81,14.81,0,0,0,157.36,9.65Zm-.14,1.06c.07-.13.14-.22.19-.3-1-1.31-1.68-2.19-1.74-2.28a2.63,2.63,0,0,1-.46-1.69,15.83,15.83,0,0,1-2.09-1.18S155.07,7.84,157.22,10.71Zm-2.06,2.61a4.19,4.19,0,0,0,1.21-1.06,5.27,5.27,0,0,0,.47-.79l-.42-.54C156,11.7,155.54,12.5,155.16,13.32Zm-3.47,16.13a37.12,37.12,0,0,0,5.54,3.82A33.69,33.69,0,0,1,161.4,17.4l-1.11-1.47a3,3,0,0,1-1.38.78,6.22,6.22,0,0,0-.68-3.06,11.75,11.75,0,0,1-3.09-.29C153.1,17.73,152.07,22.77,151.69,29.45Zm18.45,30.68,0-.06c.11-.31.64-1.56.91-2.19,0-.11-.08-.22-.11-.33l-1.08.15c-.25,0-3.85.58-6.46-.65.32-.22.92-.71,1.72-1.23l0-.16a3.12,3.12,0,0,1-1.69.39,3.89,3.89,0,0,1,.28-1.55,2.18,2.18,0,0,1-1,0A16.71,16.71,0,0,1,164,51.7a31,31,0,0,1,2.86-4,2,2,0,0,1,.5-.9l.16-.18-.31-.25a.9.9,0,0,1-.26.2,1.7,1.7,0,0,1-.64.19c-.33,0-.52,0-.64-.22l0,0a.63.63,0,0,1-.48-.4.57.57,0,0,1,0-.13.42.42,0,0,1-.48-.06c-.23-.2.09-1.21,1.19-2.25A7.31,7.31,0,0,1,168,42.17c.51-.23.82.21.57.52a1.57,1.57,0,0,0-.23,1.68l.48-.17a.83.83,0,0,0,.44-.31l.05-.11-.46,0c.23-.58-.13-2,.11-2.9a1.81,1.81,0,0,1-.31.18,11.18,11.18,0,0,1-.08-2.8,1.92,1.92,0,0,0-.57-.79,8.93,8.93,0,0,1-1.46,2.39,6.91,6.91,0,0,0-2.17,3.67h0a5.48,5.48,0,0,1-.38,1,2.51,2.51,0,0,0-.33,1.15h0a33.61,33.61,0,0,1-.39,6.13,6.57,6.57,0,0,1-.83,2.23l-.09-.07a5.34,5.34,0,0,1-.94,2.07s-.49-1-1.39-8.48c-1-8.25-1.48-16.87-1.48-16.87h0a13.07,13.07,0,0,1,.69-4.61,16,16,0,0,1,3-4.92,1.84,1.84,0,0,1,1.7-.53l-.34-.46c-.56-.75-1.22-1.57-1.78-2.31-4,7.1-3.93,15.56-3.93,15.64v.9l-.71-.38a34.3,34.3,0,0,1-5.58-3.74c0,.86-.13,3.78-.13,3.78V36c0,3.39.61,11.7,3.37,17.41a17.17,17.17,0,0,0,3.28,4.37,12.72,12.72,0,0,0,4.9,2.86l.42.14A8.73,8.73,0,0,0,170.14,60.13ZM170,62.49a1.74,1.74,0,0,1,1.89-.27,36.24,36.24,0,0,1,.43-3.8,2,2,0,0,1-.63.47s-.1,0-.17-.13Zm8,.73a41.54,41.54,0,0,0-.64-5.48l-.09-.13-.15-.22a7.58,7.58,0,0,1-.36,1,2.24,2.24,0,0,1-.52.8A3.76,3.76,0,0,1,175,57.61a3.74,3.74,0,0,1-1.27,1.56,2.45,2.45,0,0,1-.52-.81c-.08-.18-.15-.36-.21-.53a42.8,42.8,0,0,0-.57,5.39c-1.57-1-2.52,0-2.2.72,0,.06.07.12.11.17a1,1,0,0,0,.78.41A4.85,4.85,0,0,1,173,65a6.18,6.18,0,0,1,2.2,1.8,6.08,6.08,0,0,1,2.19-1.8,4.92,4.92,0,0,1,1.93-.44,1.11,1.11,0,0,0,.78-.41,1,1,0,0,0,.1-.17C180.51,63.21,179.57,62.18,178,63.22Zm2.4-.73-1.54-3.94c-.14.2-.27.35-.3.34a1.9,1.9,0,0,1-.53-.37,29,29,0,0,1,.47,3.7A1.76,1.76,0,0,1,180.4,62.49Zm18.06-28.24c0-1.14-.08-3-.13-3.85a34,34,0,0,1-5.41,3.65l-.87.47V33.9a34.14,34.14,0,0,0-3.87-15.82c-.26.35-1.12,1.45-2,2.58a1.8,1.8,0,0,1,1.54.55,15.78,15.78,0,0,1,3,4.92,13.07,13.07,0,0,1,.69,4.61h0s-.5,8.61-1.48,16.86c-.89,7.5-1.39,8.48-1.39,8.48a5.34,5.34,0,0,1-.94-2.07l-.08.07a6.43,6.43,0,0,1-.84-2.22,32.85,32.85,0,0,1-.38-6.14h0a2.69,2.69,0,0,0-.33-1.15,4.91,4.91,0,0,1-.39-1h0a6.91,6.91,0,0,0-2.18-3.67,10.86,10.86,0,0,1-1.52-2.5l-.06,0a2.13,2.13,0,0,0-.68.95,9.51,9.51,0,0,1,.06,3,1.63,1.63,0,0,1-.29-.23c.09.89-.33,1.92-.06,2.74l-.53-.07.06.13a.77.77,0,0,0,.27.23l.17.08.54.19a1.6,1.6,0,0,0-.23-1.68c-.25-.3.05-.75.57-.52a7.51,7.51,0,0,1,2.17,1.45c1.1,1,1.42,2,1.19,2.25s-.32.12-.54,0a.2.2,0,0,1,0,.11.6.6,0,0,1-.47.41l0,0c-.12.17-.31.23-.64.22a1.88,1.88,0,0,1-.65-.19,1,1,0,0,1-.21-.16l-.2.16a46.72,46.72,0,0,1,3.73,5.23,16.58,16.58,0,0,1,1.25,2.79,2.27,2.27,0,0,1-1,0,3.92,3.92,0,0,1,.28,1.55,3.14,3.14,0,0,1-1.69-.39c0,.09,0,.19,0,.29l1.39,1c-2.61,1.23-6.39.67-6.47.66l-.48-.07-.1.24c.26.6.85,2,1,2.29a8.72,8.72,0,0,0,5.58.87,7.53,7.53,0,0,0,1.42-.39,14.63,14.63,0,0,0,4.48-2.89,17.31,17.31,0,0,0,3.37-4.32c2.89-5.64,3.36-14,3.36-17.4C198.45,34.9,198.46,34.3,198.46,34.25Z"/></g></g></svg>