<svg xmlns="http://www.w3.org/2000/svg" viewBox="0 0 141.73 84.57"><defs><style>.cls-1{fill:#fff;}</style></defs><g id="Layer_2" data-name="Layer 2"><g id="Layer_1-2" data-name="Layer 1"><path class="cls-1" d="M11.63,6.55c-.38,1.12-.8,2.36-1.26,3.74s-.89,2.76-1.26,4.17h5c-.37-1.44-.75-2.84-1.14-4.21s-.73-2.61-1.05-3.7ZM6.83,1.4A8.28,8.28,0,0,1,8.89.64,10.93,10.93,0,0,1,11.67.28,9.86,9.86,0,0,1,15.2.86a3.09,3.09,0,0,1,2,1.82q.72,2.07,1.56,4.83t1.68,5.69c.55,2,1.1,3.89,1.63,5.8s1,3.59,1.4,5.05A3.36,3.36,0,0,1,22,25a7,7,0,0,1-2.27.34,6.81,6.81,0,0,1-1.62-.16A3,3,0,0,1,17,24.65a2.27,2.27,0,0,1-.68-.84,7.52,7.52,0,0,1-.46-1.2l-.72-2.76H8c-.21.8-.43,1.63-.64,2.48S6.88,24,6.67,24.81a11.78,11.78,0,0,1-1.18.34A7,7,0,0,1,4,25.29a5.28,5.28,0,0,1-3-.7,2.26,2.26,0,0,1-1-1.94,4,4,0,0,1,.16-1.12c.11-.37.23-.81.36-1.31.19-.73.45-1.62.78-2.68s.7-2.22,1.1-3.46.82-2.51,1.28-3.81L5,6.57c.4-1.16.77-2.19,1.1-3.09L6.83,1.4"/><path class="cls-1" d="M34.07,19.89a6.24,6.24,0,0,0,1.43.22q.89.06,1.68.06a5,5,0,0,0,2.66-.65,2.26,2.26,0,0,0,1.06-2.06A2.07,2.07,0,0,0,40,15.58,5.12,5.12,0,0,0,37.34,15H34.07Zm0-9.74H37a3.9,3.9,0,0,0,2.5-.64,2.29,2.29,0,0,0,.78-1.88,2,2,0,0,0-.9-1.72,4.72,4.72,0,0,0-2.7-.64c-.4,0-.86,0-1.37,0a11.59,11.59,0,0,0-1.22.12Zm2.59,15.38c-.45,0-1,0-1.59,0s-1.25-.08-1.9-.16-1.3-.18-1.94-.3a9.81,9.81,0,0,1-1.76-.5,3,3,0,0,1-2.2-2.92V3a1.77,1.77,0,0,1,.46-1.3A3.34,3.34,0,0,1,29,.92a15.54,15.54,0,0,1,3.4-.7A38.26,38.26,0,0,1,36.58,0c3.41,0,6,.57,7.87,1.72A5.8,5.8,0,0,1,47.21,7a4.83,4.83,0,0,1-1,3.1A6,6,0,0,1,43.38,12a6.9,6.9,0,0,1,3.33,2,5.36,5.36,0,0,1,1.34,3.72,6.48,6.48,0,0,1-2.94,5.85c-2,1.26-4.77,1.9-8.45,1.9"/><path class="cls-1" d="M8.38,50.15a8.45,8.45,0,0,0,1.08.14q.64.06,1.2.06a7.45,7.45,0,0,0,2.5-.4,4.93,4.93,0,0,0,1.95-1.24,5.58,5.58,0,0,0,1.28-2.17,9.92,9.92,0,0,0,.46-3.22,7.71,7.71,0,0,0-1.68-5.41,5.8,5.8,0,0,0-4.47-1.82c-.38,0-.75,0-1.14,0l-1.18.12ZM10.62,56c-.45,0-1,0-1.56,0s-1.19-.08-1.82-.16-1.25-.18-1.87-.3A9.59,9.59,0,0,1,3.63,55a3,3,0,0,1-2.2-2.92V33.41a1.71,1.71,0,0,1,.46-1.29,3.21,3.21,0,0,1,1.26-.74,16.35,16.35,0,0,1,3.63-.74c1.28-.12,2.43-.18,3.44-.18a19.5,19.5,0,0,1,5.65.76,11.58,11.58,0,0,1,4.36,2.33,10.54,10.54,0,0,1,2.81,4,14.62,14.62,0,0,1,1,5.67,14.88,14.88,0,0,1-1,5.58,10.84,10.84,0,0,1-2.73,4,11.61,11.61,0,0,1-4.26,2.42,17.8,17.8,0,0,1-5.47.8"/><path class="cls-1" d="M49.69,55.19a10.88,10.88,0,0,1-1.38.24,14.52,14.52,0,0,1-1.86.12,8.46,8.46,0,0,1-1.61-.14,3,3,0,0,1-1.18-.5,2.14,2.14,0,0,1-.72-1,4.9,4.9,0,0,1-.24-1.68V46H35v9.19a11.6,11.6,0,0,1-1.38.24,14.76,14.76,0,0,1-1.86.12,8.65,8.65,0,0,1-1.62-.14,3.08,3.08,0,0,1-1.18-.5,2.2,2.2,0,0,1-.71-1A4.9,4.9,0,0,1,28,52.23V31.14c.29-.06.76-.13,1.4-.22a13.08,13.08,0,0,1,1.83-.14,8.57,8.57,0,0,1,1.62.14,2.82,2.82,0,0,1,1.18.5,2.14,2.14,0,0,1,.72,1A4.8,4.8,0,0,1,35,34.09v6.4H42.7V31.14c.29-.06.76-.13,1.4-.22a13.19,13.19,0,0,1,1.83-.14,8.5,8.5,0,0,1,1.62.14,2.82,2.82,0,0,1,1.18.5,2.14,2.14,0,0,1,.72,1,4.8,4.8,0,0,1,.24,1.67Z"/><path class="cls-1" d="M64.83,37c-.37,1.12-.79,2.36-1.26,3.73s-.88,2.77-1.26,4.18h5c-.38-1.44-.76-2.84-1.14-4.21s-.74-2.61-1.06-3.7ZM60,31.86a8.18,8.18,0,0,1,2.05-.76,11,11,0,0,1,2.78-.36,10,10,0,0,1,3.54.58,3.06,3.06,0,0,1,2,1.81q.72,2.09,1.56,4.84c.56,1.84,1.12,3.73,1.68,5.69s1.1,3.89,1.64,5.79,1,3.59,1.39,5.06a3.32,3.32,0,0,1-1.43.9,7,7,0,0,1-2.28.34,7.38,7.38,0,0,1-1.62-.16,3,3,0,0,1-1.08-.48,2.57,2.57,0,0,1-.68-.84,8.62,8.62,0,0,1-.46-1.2l-.71-2.76H61.16c-.22.8-.43,1.63-.65,2.48s-.42,1.68-.64,2.48c-.37.13-.76.24-1.17.34a7.15,7.15,0,0,1-1.5.14,5.3,5.3,0,0,1-3-.7,2.26,2.26,0,0,1-1-1.94A4,4,0,0,1,53.37,52c.1-.37.22-.81.35-1.32Q54,49.59,54.5,48c.34-1.07.7-2.22,1.1-3.46s.83-2.51,1.28-3.81L58.16,37c.4-1.16.76-2.19,1.1-3.1s.59-1.6.78-2.07"/><path class="cls-1" d="M86.72,50.35a7,7,0,0,0,1.44.22q.87.06,1.68.06A5.06,5.06,0,0,0,92.5,50a2.27,2.27,0,0,0,1-2.06A2.06,2.06,0,0,0,92.68,46,5.12,5.12,0,0,0,90,45.48H86.72Zm0-9.74h2.92a3.92,3.92,0,0,0,2.5-.65,2.27,2.27,0,0,0,.78-1.87,2,2,0,0,0-.9-1.72,4.72,4.72,0,0,0-2.7-.64c-.4,0-.86,0-1.38,0a11.59,11.59,0,0,0-1.22.12ZM89.32,56c-.46,0-1,0-1.6,0s-1.24-.08-1.9-.16-1.3-.18-1.94-.3a9.7,9.7,0,0,1-1.75-.5,3,3,0,0,1-2.2-2.92V33.41a1.71,1.71,0,0,1,.46-1.29,3.07,3.07,0,0,1,1.26-.74,15.44,15.44,0,0,1,3.39-.7,38.31,38.31,0,0,1,4.2-.22q5.12,0,7.87,1.72a5.8,5.8,0,0,1,2.76,5.31,4.83,4.83,0,0,1-1,3.1A6,6,0,0,1,96,42.48a7,7,0,0,1,3.34,2,5.33,5.33,0,0,1,1.34,3.72,6.48,6.48,0,0,1-2.94,5.85c-2,1.26-4.78,1.9-8.45,1.9"/><path class="cls-1" d="M111.65,55.19a10.88,10.88,0,0,1-1.38.24,14.52,14.52,0,0,1-1.86.12,8.46,8.46,0,0,1-1.61-.14,3,3,0,0,1-1.18-.5,2.14,2.14,0,0,1-.72-1,4.9,4.9,0,0,1-.24-1.68V31.14c.29-.06.76-.13,1.4-.22a13.19,13.19,0,0,1,1.83-.14,8.5,8.5,0,0,1,1.62.14,2.82,2.82,0,0,1,1.18.5,2.14,2.14,0,0,1,.72,1,4.8,4.8,0,0,1,.24,1.67Z"/><path class="cls-1" d="M77.85,21.24v.45a2.38,2.38,0,0,1-2.38,2.38H54.11a2.38,2.38,0,0,1-2.38-2.38v-.45a2.39,2.39,0,0,1,2.38-2.38H75.47a2.39,2.39,0,0,1,2.38,2.38"/><path class="cls-1" d="M7.76,75.75c-.15.51-.3,1-.46,1.54s-.31,1-.47,1.48-.32.92-.47,1.34-.29.79-.42,1.12l-.29.13a1.73,1.73,0,0,1-.44,0,1,1,0,0,1-.47-.09.47.47,0,0,1-.3-.28A10.44,10.44,0,0,1,4,79.77c-.18-.57-.36-1.19-.55-1.88s-.37-1.37-.53-2.06-.31-1.3-.42-1.82a1.08,1.08,0,0,1,.29-.21.86.86,0,0,1,.41-.1.58.58,0,0,1,.45.17,1.3,1.3,0,0,1,.23.54c.09.45.21,1,.33,1.55s.26,1.13.39,1.68.25,1,.37,1.5.19.79.25,1h.06c.07-.19.16-.48.28-.87s.27-.83.43-1.33.34-1,.53-1.62.39-1.16.58-1.75a1.54,1.54,0,0,1,.7-.16c.4,0,.65.14.74.42.2.56.38,1.12.56,1.67l.49,1.55q.23.7.39,1.26c.11.37.19.66.26.85h.08c.25-1,.52-2,.81-3.08s.52-2.17.71-3.23a1,1,0,0,1,.55-.15.65.65,0,0,1,.43.13.49.49,0,0,1,.16.41,4.11,4.11,0,0,1-.1.68c-.07.34-.17.73-.28,1.18s-.25.93-.4,1.44-.29,1-.44,1.48-.3.92-.43,1.31-.25.69-.35.9a.87.87,0,0,1-.27.12,1.34,1.34,0,0,1-.42.05,1.46,1.46,0,0,1-.51-.07.4.4,0,0,1-.27-.23c-.12-.29-.24-.64-.38-1s-.27-.84-.43-1.31-.3-1-.46-1.47-.31-1-.46-1.54"/><path class="cls-1" d="M15.92,81.35a1.37,1.37,0,0,1-.36,0c-.46,0-.69-.2-.69-.58v-10a1,1,0,0,1,.25-.08,1.37,1.37,0,0,1,.36,0c.45,0,.68.19.68.58v2.91a5.16,5.16,0,0,1,.91-.41,4,4,0,0,1,1.19-.17,4.3,4.3,0,0,1,1.23.17,2.58,2.58,0,0,1,1,.55,2.53,2.53,0,0,1,.62.92,3.25,3.25,0,0,1,.23,1.3v4.69a1.23,1.23,0,0,1-.25.08,1.34,1.34,0,0,1-.35,0c-.46,0-.69-.2-.69-.58v-4.2a1.83,1.83,0,0,0-.53-1.44,2.09,2.09,0,0,0-1.41-.47,2.67,2.67,0,0,0-1.06.21,3.44,3.44,0,0,0-.86.49v5.87a1.33,1.33,0,0,1-.24.08"/><path class="cls-1" d="M26.4,80.47a3.92,3.92,0,0,0,1.12-.14,2.83,2.83,0,0,0,.64-.26V77.72l-2,.21a2.6,2.6,0,0,0-1.25.38,1,1,0,0,0-.4.88,1.1,1.1,0,0,0,.47,1,2.46,2.46,0,0,0,1.42.33m0-6.83a3.58,3.58,0,0,1,2.23.63,2.33,2.33,0,0,1,.82,2v3.83a.9.9,0,0,1-.13.54,1.47,1.47,0,0,1-.41.35,4.12,4.12,0,0,1-1,.39,5.42,5.42,0,0,1-1.46.17,4,4,0,0,1-2.35-.59,2,2,0,0,1-.83-1.73,1.92,1.92,0,0,1,.69-1.61,3.82,3.82,0,0,1,2-.67l2.29-.23v-.45a1.39,1.39,0,0,0-.49-1.18,2.13,2.13,0,0,0-1.3-.37,4.09,4.09,0,0,0-1.28.2,7.68,7.68,0,0,0-1.07.43,1.47,1.47,0,0,1-.23-.26.51.51,0,0,1-.1-.32.56.56,0,0,1,.11-.37.92.92,0,0,1,.35-.27,3.69,3.69,0,0,1,1-.35,6,6,0,0,1,1.23-.12"/><path class="cls-1" d="M34.34,81.52a3.12,3.12,0,0,1-1.83-.5,1.91,1.91,0,0,1-.7-1.67V71.68l.25-.07a1.37,1.37,0,0,1,.36,0c.45,0,.68.19.68.58V74h2.65a1.23,1.23,0,0,1,.09.22.73.73,0,0,1,0,.3q0,.54-.48.54H33.1v4.2a1.08,1.08,0,0,0,.36.92,1.78,1.78,0,0,0,1,.26,2,2,0,0,0,.61-.1,2.61,2.61,0,0,0,.57-.22.92.92,0,0,1,.17.24.64.64,0,0,1,.09.34.66.66,0,0,1-.42.58,2.53,2.53,0,0,1-1.17.23"/><path class="cls-1" d="M38,74.25a.88.88,0,0,1-.24.33.52.52,0,0,1-.35.11,1,1,0,0,1-.29,0,.73.73,0,0,1-.23-.13c0-.21.07-.44.12-.7s.09-.54.13-.84.07-.57.11-.86,0-.55.08-.8a2,2,0,0,1,.61-.09.63.63,0,0,1,.44.15.58.58,0,0,1,.17.47,4.4,4.4,0,0,1,0,.58q-.06.35-.15.69c-.06.24-.12.45-.19.66s-.11.36-.16.48"/><path class="cls-1" d="M44.79,79.32A1.92,1.92,0,0,1,44,80.94a3.59,3.59,0,0,1-2.19.58,5.8,5.8,0,0,1-1.14-.11,4.07,4.07,0,0,1-.87-.27,1.89,1.89,0,0,1-.57-.39.61.61,0,0,1-.2-.44.69.69,0,0,1,.1-.37.87.87,0,0,1,.32-.31,5.44,5.44,0,0,0,1,.57,3.21,3.21,0,0,0,1.32.25c1.12,0,1.68-.37,1.68-1.13,0-.61-.37-1-1.12-1.19L41,77.77A2.88,2.88,0,0,1,39.61,77a1.81,1.81,0,0,1-.45-1.27,2.05,2.05,0,0,1,.16-.81,1.88,1.88,0,0,1,.53-.67,2.53,2.53,0,0,1,.88-.46A3.81,3.81,0,0,1,42,73.64a4.28,4.28,0,0,1,1.83.33c.46.22.69.47.69.77a.66.66,0,0,1-.1.37.72.72,0,0,1-.28.24,5.23,5.23,0,0,0-.83-.42A3.19,3.19,0,0,0,42,74.7a2.12,2.12,0,0,0-1.15.28.86.86,0,0,0-.43.77.88.88,0,0,0,.24.63,1.61,1.61,0,0,0,.81.39l1.11.28a3.49,3.49,0,0,1,1.65.81,2,2,0,0,1,.55,1.46"/><path class="cls-1" d="M59,75.07a1.88,1.88,0,0,0-1.21-.37,2.7,2.7,0,0,0-1.87.75,2.5,2.5,0,0,1,.09.69v5.13a1,1,0,0,1-.25.08,1.27,1.27,0,0,1-.34,0c-.47,0-.7-.2-.7-.58V76.24a1.44,1.44,0,0,0-.45-1.17A1.92,1.92,0,0,0,53,74.7a3.08,3.08,0,0,0-1,.16,4.5,4.5,0,0,0-.79.37v6a1.1,1.1,0,0,1-.24.08,1.29,1.29,0,0,1-.35,0c-.47,0-.7-.2-.7-.58V75.3a1,1,0,0,1,.14-.54,1.7,1.7,0,0,1,.47-.45,4.63,4.63,0,0,1,1.11-.47,4.85,4.85,0,0,1,1.35-.2,4.09,4.09,0,0,1,1.41.23,2.17,2.17,0,0,1,.93.64,3.35,3.35,0,0,1,1-.62,3.81,3.81,0,0,1,1.44-.25,3.26,3.26,0,0,1,2.08.62,2.29,2.29,0,0,1,.78,1.91v5.1a1.48,1.48,0,0,1-.25.08,1.39,1.39,0,0,1-.35,0c-.46,0-.7-.2-.7-.58V76.24A1.44,1.44,0,0,0,59,75.07"/><path class="cls-1" d="M64.52,81.27a1.1,1.1,0,0,1-.24.08,1.37,1.37,0,0,1-.36,0c-.46,0-.69-.2-.69-.58V73.88a1.35,1.35,0,0,1,.25-.07,1.37,1.37,0,0,1,.36,0c.45,0,.68.2.68.59ZM63,71.49a.74.74,0,0,1,.23-.57.82.82,0,0,1,.61-.24.81.81,0,1,1,0,1.62.82.82,0,0,1-.61-.24.74.74,0,0,1-.23-.57"/><path class="cls-1" d="M72.3,79.32a1.94,1.94,0,0,1-.75,1.62,3.63,3.63,0,0,1-2.2.58,5.62,5.62,0,0,1-1.13-.11,4,4,0,0,1-.88-.27,2.18,2.18,0,0,1-.57-.39.66.66,0,0,1-.2-.44.7.7,0,0,1,.11-.37.84.84,0,0,1,.31-.31,5.44,5.44,0,0,0,1,.57,3.27,3.27,0,0,0,1.32.25c1.12,0,1.68-.37,1.68-1.13,0-.61-.37-1-1.11-1.19l-1.34-.36A2.87,2.87,0,0,1,67.12,77a1.81,1.81,0,0,1-.45-1.27,2.06,2.06,0,0,1,.17-.81,1.85,1.85,0,0,1,.52-.67,2.53,2.53,0,0,1,.88-.46,3.83,3.83,0,0,1,1.24-.17A4.26,4.26,0,0,1,71.3,74c.47.22.7.47.7.77a.67.67,0,0,1-.11.37.66.66,0,0,1-.28.24,5.06,5.06,0,0,0-.82-.42,3.26,3.26,0,0,0-1.26-.23,2.16,2.16,0,0,0-1.16.28.88.88,0,0,0-.43.77.89.89,0,0,0,.25.63,1.62,1.62,0,0,0,.8.39l1.12.28a3.54,3.54,0,0,1,1.65.81,2,2,0,0,1,.54,1.46"/><path class="cls-1" d="M79.52,79.32a1.92,1.92,0,0,1-.76,1.62,3.57,3.57,0,0,1-2.19.58,5.62,5.62,0,0,1-1.13-.11,4,4,0,0,1-.88-.27,2.18,2.18,0,0,1-.57-.39.66.66,0,0,1-.2-.44.62.62,0,0,1,.11-.37.84.84,0,0,1,.31-.31,5.44,5.44,0,0,0,1,.57,3.24,3.24,0,0,0,1.32.25c1.12,0,1.68-.37,1.68-1.13,0-.61-.37-1-1.11-1.19l-1.34-.36A2.87,2.87,0,0,1,74.34,77a1.81,1.81,0,0,1-.45-1.27,1.9,1.9,0,0,1,.17-.81,1.74,1.74,0,0,1,.52-.67,2.53,2.53,0,0,1,.88-.46,3.83,3.83,0,0,1,1.24-.17,4.26,4.26,0,0,1,1.82.33c.46.22.7.47.7.77a.67.67,0,0,1-.11.37.66.66,0,0,1-.28.24,5.53,5.53,0,0,0-.82-.42,3.26,3.26,0,0,0-1.26-.23,2.16,2.16,0,0,0-1.16.28.92.92,0,0,0-.19,1.4,1.7,1.7,0,0,0,.81.39l1.12.28a3.45,3.45,0,0,1,1.64.81,2,2,0,0,1,.55,1.46"/><path class="cls-1" d="M82.85,81.27a1.33,1.33,0,0,1-.24.08,1.37,1.37,0,0,1-.36,0c-.46,0-.69-.2-.69-.58V73.88a1.35,1.35,0,0,1,.25-.07,1.37,1.37,0,0,1,.36,0c.45,0,.68.2.68.59Zm-1.49-9.78a.75.75,0,0,1,.24-.57.8.8,0,0,1,.6-.24.81.81,0,1,1,0,1.62.8.8,0,0,1-.6-.24.75.75,0,0,1-.24-.57"/><path class="cls-1" d="M90,75.12a2.1,2.1,0,0,0-1.37-.42,4,4,0,0,0-1.15.16,5.27,5.27,0,0,0-.85.37v6a1.33,1.33,0,0,1-.24.08,1.37,1.37,0,0,1-.36,0c-.46,0-.69-.2-.69-.58V75.3a1.06,1.06,0,0,1,.13-.56,1.59,1.59,0,0,1,.48-.43,4.86,4.86,0,0,1,1.12-.46,5.35,5.35,0,0,1,1.56-.21A3.7,3.7,0,0,1,91,74.3a2.5,2.5,0,0,1,.85,2.08v4.89a1.48,1.48,0,0,1-.25.08,1.39,1.39,0,0,1-.35,0c-.46,0-.69-.2-.69-.58V76.45A1.67,1.67,0,0,0,90,75.12"/><path class="cls-1" d="M97.5,80a2.42,2.42,0,0,0,1-.2,2.61,2.61,0,0,0,.69-.47V75.16a2.78,2.78,0,0,0-.69-.32,3.1,3.1,0,0,0-1-.14,2.37,2.37,0,0,0-1.76.66,2.74,2.74,0,0,0-.65,2,3.73,3.73,0,0,0,.18,1.24,2.18,2.18,0,0,0,.49.83,1.87,1.87,0,0,0,.74.47,2.77,2.77,0,0,0,.92.15m1.74.51a2.38,2.38,0,0,1-.75.39,3.52,3.52,0,0,1-1.14.16,4.52,4.52,0,0,1-1.34-.2,2.83,2.83,0,0,1-1.11-.65,3.21,3.21,0,0,1-.76-1.15,4.86,4.86,0,0,1-.28-1.73,4.3,4.3,0,0,1,.28-1.62,3.21,3.21,0,0,1,.76-1.16,3.25,3.25,0,0,1,1.18-.7,4.72,4.72,0,0,1,1.5-.23,4.86,4.86,0,0,1,1.36.18,4.21,4.21,0,0,1,1,.46,1.59,1.59,0,0,1,.4.37.77.77,0,0,1,.15.49v6.49a3.08,3.08,0,0,1-.27,1.36,2.21,2.21,0,0,1-.74.91,3.29,3.29,0,0,1-1.12.51,5.58,5.58,0,0,1-1.39.16,5.15,5.15,0,0,1-1.4-.17,3.31,3.31,0,0,1-.78-.3.79.79,0,0,1-.48-.69.63.63,0,0,1,.1-.38.69.69,0,0,1,.27-.24,3.34,3.34,0,0,0,1,.48,4.14,4.14,0,0,0,1.34.22A2.67,2.67,0,0,0,98.67,83a1.8,1.8,0,0,0,.57-1.48Z"/><path class="cls-1" d="M107.52,81.27a1.1,1.1,0,0,1-.24.08,1.34,1.34,0,0,1-.35,0c-.47,0-.7-.2-.7-.58V73.88a1.64,1.64,0,0,1,.25-.07,1.42,1.42,0,0,1,.36,0c.46,0,.68.2.68.59ZM106,71.49a.74.74,0,0,1,.23-.57.88.88,0,0,1,1.21,0,.85.85,0,0,1,0,1.14.88.88,0,0,1-1.21,0,.74.74,0,0,1-.23-.57"/><path class="cls-1" d="M115.31,79.32a2,2,0,0,1-.76,1.62,3.63,3.63,0,0,1-2.2.58,5.7,5.7,0,0,1-1.13-.11,4.17,4.17,0,0,1-.88-.27,2,2,0,0,1-.56-.39.63.63,0,0,1-.21-.44.7.7,0,0,1,.11-.37.84.84,0,0,1,.31-.31,5.44,5.44,0,0,0,1,.57,3.29,3.29,0,0,0,1.33.25c1.11,0,1.68-.37,1.68-1.13,0-.61-.38-1-1.12-1.19l-1.34-.36a2.87,2.87,0,0,1-1.44-.75,1.81,1.81,0,0,1-.45-1.27,2.06,2.06,0,0,1,.17-.81,1.77,1.77,0,0,1,.53-.67,2.45,2.45,0,0,1,.88-.46,3.77,3.77,0,0,1,1.23-.17,4.26,4.26,0,0,1,1.82.33c.47.22.7.47.7.77a.67.67,0,0,1-.11.37.66.66,0,0,1-.28.24,5.06,5.06,0,0,0-.82-.42,3.26,3.26,0,0,0-1.26-.23,2.16,2.16,0,0,0-1.16.28.87.87,0,0,0-.42.77.88.88,0,0,0,.24.63,1.61,1.61,0,0,0,.81.39l1.11.28a3.54,3.54,0,0,1,1.65.81,2,2,0,0,1,.55,1.46"/><path class="cls-1" d="M141.73,72.45a9.67,9.67,0,0,1-.7,3.75,7.94,7.94,0,0,1-2,2.88,9.13,9.13,0,0,1-3.23,1.84,14.48,14.48,0,0,1-8.58,0A9.13,9.13,0,0,1,124,79.08a7.82,7.82,0,0,1-2-2.88,9.67,9.67,0,0,1-.71-3.75V58c.28-.06.73-.12,1.33-.21a11.94,11.94,0,0,1,1.75-.13,7.83,7.83,0,0,1,1.54.13,2.85,2.85,0,0,1,1.12.47,2.1,2.1,0,0,1,.68.95,4.72,4.72,0,0,1,.23,1.6V72.34a3.9,3.9,0,0,0,1,2.85,3.85,3.85,0,0,0,5.22,0,3.94,3.94,0,0,0,1-2.85V58c.28-.06.72-.12,1.33-.21a11.81,11.81,0,0,1,1.74-.13,7.83,7.83,0,0,1,1.54.13,2.79,2.79,0,0,1,1.12.47,2,2,0,0,1,.68.95,4.48,4.48,0,0,1,.23,1.6Z"/></g></g></svg>