<svg xmlns="http://www.w3.org/2000/svg" viewBox="0 0 883 238.92"><defs><style>.cls-1{fill:#fff;}</style></defs><g id="Layer_2" data-name="Layer 2"><g id="Layer_1-2" data-name="Layer 1"><polygon class="cls-1" points="540.96 64.01 498.6 64.01 498.6 96.64 548.97 96.64 548.97 114.22 475.7 114.22 475.7 0 548.81 0 548.81 17.66 498.6 17.66 498.6 46.37 540.96 46.37 540.96 64.01"/><polygon class="cls-1" points="647.39 17.65 614.76 17.65 614.76 114.21 591.86 114.21 591.86 17.65 559.7 17.65 559.7 0 647.39 0 647.39 17.65"/><path class="cls-1" d="M682.29,71.62H708.1L695.47,31.38H695Zm31.38,18h-37L669,114.21H645L683.55,0H707l38.36,114.21H721.43Z"/><rect class="cls-1" x="760.64" width="22.91" height="114.21"/><polygon class="cls-1" points="831.86 96.64 883 96.64 883 114.22 808.95 114.22 808.95 0 831.86 0 831.86 96.64"/><path class="cls-1" d="M384.72,210.54h16.56l-8.1-25.81h-.31Zm20.13,11.52H381.1l-4.93,15.8H360.83l24.7-73.25h15l24.6,73.25H409.83Z"/><polygon class="cls-1" points="721.7 237.86 707.01 237.86 707.01 207.42 677.18 207.42 677.18 237.86 662.49 237.86 662.49 164.61 677.18 164.61 677.18 196.1 707.01 196.1 707.01 164.61 721.7 164.61 721.7 237.86"/><path class="cls-1" d="M754.15,210.54h16.56l-8.1-25.81h-.31Zm20.13,11.52H750.53l-4.93,15.8H730.26L755,164.61h15l24.6,73.25H779.26Z"/><rect class="cls-1" x="868.31" y="164.61" width="14.69" height="73.25"/><rect class="cls-1" x="232.46" y="2.21" width="56.95" height="15.18"/><rect class="cls-1" x="274.24" y="4.04" width="15.18" height="56.95"/><rect class="cls-1" x="0.32" y="3.12" width="56.95" height="15.17"/><rect class="cls-1" x="232.14" y="222.68" width="56.95" height="15.18"/><rect class="cls-1" x="273.92" y="179.07" width="15.18" height="56.95"/><rect class="cls-1" y="221.77" width="56.95" height="15.18"/><rect class="cls-1" y="178.16" width="15.17" height="56.96"/><rect class="cls-1" x="49.19" y="51.73" width="7.09" height="142.33"/><rect class="cls-1" x="72.33" y="51.73" width="26.07" height="142.33"/><rect class="cls-1" x="127.59" y="51.73" width="14.08" height="142.33"/><rect class="cls-1" x="108.38" y="51.73" width="4.75" height="142.33"/><rect class="cls-1" x="163.6" y="51.73" width="26.07" height="142.33"/><rect class="cls-1" x="216.71" y="51.73" width="14.08" height="142.33"/><rect class="cls-1" x="199.65" y="51.73" width="4.75" height="142.33"/><rect class="cls-1" x="0.32" y="4.95" width="15.17" height="56.95"/><path class="cls-1" d="M393.5,50.92h16.24q9.64,0,14.35-4.09t4.71-12.07q0-7.84-4.75-12.48t-13.92-4.63H393.5Zm0,17.64v45.66H370.59V0h39.54q19.53,0,30.55,8.9t11,24.83A25,25,0,0,1,447,48.91q-4.67,6.41-13.61,10.32,10.13,3,14.55,10t4.43,17.26v8.39a41.62,41.62,0,0,0,1.3,10q1.29,5.22,4.43,7.73v1.65H434.53q-3.15-2.5-4-8.32a73.15,73.15,0,0,1-.91-11.21V86.6c0-5.69-1.55-10.13-4.66-13.29s-7.52-4.75-13.22-4.75Z"/><path class="cls-1" d="M816.34,205.46v21.13H830q5.84,0,8.91-2.54c2-1.69,3.07-4.2,3.07-7.52q0-5.34-3-8.2t-9.11-2.87Zm0-10.16h9.81q5.88,0,9.06-2.42a8.3,8.3,0,0,0,3.16-7q0-5.09-3.19-7.5t-9.53-2.41h-9.31Zm-14.69,42.56V164.61h24q12.93,0,20.17,5.06t7.25,15a15.57,15.57,0,0,1-10.27,15q6.84,1.24,10.32,5.93a17.86,17.86,0,0,1,3.47,10.92q0,10.51-7,15.92T830,237.86Z"/><path class="cls-1" d="M609,175.93v50.66h10.87a14.33,14.33,0,0,0,11.67-5.41q4.43-5.4,4.43-13.86V195.1q0-8.4-4.43-13.79a14.36,14.36,0,0,0-11.67-5.38Zm-14.69,61.93V164.61h25.56q13.43,0,22.13,8.58t8.71,22v12.12q0,13.49-8.71,22t-22.13,8.53Z"/><path class="cls-1" d="M446.91,205.46v21.13h13.63q5.83,0,8.91-2.54c2-1.69,3.07-4.2,3.07-7.52q0-5.34-3-8.2t-9.11-2.87Zm0-10.16h9.81q5.88,0,9.06-2.42a8.3,8.3,0,0,0,3.16-7q0-5.09-3.19-7.5t-9.54-2.41h-9.3Zm-14.69,42.56V164.61h24q12.94,0,20.18,5.06t7.25,15a15.57,15.57,0,0,1-10.27,15q6.84,1.24,10.32,5.93a17.86,17.86,0,0,1,3.47,10.92q0,10.51-7,15.92t-19.67,5.41Z"/><path class="cls-1" d="M555.93,164.61v47.95q0,12.38-8.2,19.36t-21.28,7q-13,0-21.16-7t-8.12-19.36V164.61h14.74v47.95q0,7.33,3.92,11.21t10.62,3.88q6.79,0,10.77-3.88t4-11.21V164.61Z"/></g></g></svg>